<svg width="41" height="40" viewBox="0 0 41 40" fill="none" xmlns="http://www.w3.org/2000/svg">
<g clip-path="url(#clip0_48_5620)">
<path d="M4.10303 12.1601V27.8401C4.10303 28.8481 4.63103 29.7601 5.51103 30.2721L19.095 38.1121C19.959 38.6081 21.031 38.6081 21.895 38.1121L35.479 30.2721C36.343 29.7761 36.887 28.8481 36.887 27.8401V12.1601C36.887 11.1521 36.359 10.2401 35.479 9.72811L21.895 1.88811C21.031 1.39211 19.959 1.39211 19.095 1.88811L5.51103 9.72811C4.64703 10.2241 4.11903 11.1521 4.11903 12.1601H4.10303Z" fill="#213147"/>
<path d="M23.4466 23.04L21.5106 28.352C21.4626 28.496 21.4626 28.656 21.5106 28.816L24.8386 37.952L28.6946 35.728L24.0706 23.04C23.9586 22.752 23.5586 22.752 23.4466 23.04Z" fill="#12AAFF"/>
<path d="M27.3348 14.112C27.2228 13.824 26.8228 13.824 26.7108 14.112L24.7748 19.424C24.7268 19.568 24.7268 19.728 24.7748 19.888L30.2308 34.848L34.0868 32.624L27.3348 14.128V14.112Z" fill="#12AAFF"/>
<path d="M20.4868 2.48C20.5828 2.48 20.6788 2.512 20.7588 2.56L35.4468 11.04C35.6228 11.136 35.7188 11.328 35.7188 11.52V28.48C35.7188 28.672 35.6068 28.864 35.4468 28.96L20.7588 37.44C20.6788 37.488 20.5828 37.52 20.4868 37.52C20.3908 37.52 20.2948 37.488 20.2148 37.44L5.52679 28.96C5.35079 28.864 5.25479 28.672 5.25479 28.48V11.504C5.25479 11.312 5.36679 11.12 5.52679 11.024L20.2148 2.544C20.2948 2.496 20.3908 2.464 20.4868 2.464V2.48ZM20.4868 0C19.9588 0 19.4468 0.128 18.9668 0.4L4.27879 8.88C3.33479 9.424 2.75879 10.416 2.75879 11.504V28.464C2.75879 29.552 3.33479 30.544 4.27879 31.088L18.9668 39.568C19.4308 39.84 19.9588 39.968 20.4868 39.968C21.0148 39.968 21.5268 39.84 22.0068 39.568L36.6948 31.088C37.6388 30.544 38.2148 29.552 38.2148 28.464V11.504C38.2148 10.416 37.6388 9.424 36.6948 8.88L21.9908 0.4C21.5268 0.128 20.9988 0 20.4708 0H20.4868Z" fill="#9DCCED"/>
<path d="M10.7588 34.8641L12.1188 31.1521L14.8388 33.4081L12.2948 35.7441L10.7588 34.8641Z" fill="#213147"/>
<path d="M19.2388 10.3041H15.5108C15.2388 10.3041 14.9828 10.4801 14.8868 10.7361L6.90283 32.6241L10.7588 34.8481L19.5588 10.7361C19.6388 10.5121 19.4788 10.2881 19.2548 10.2881L19.2388 10.3041Z" fill="white"/>
<path d="M25.7669 10.3041H22.0389C21.7669 10.3041 21.5109 10.4801 21.4149 10.7361L12.2949 35.7281L16.1509 37.9521L26.0709 10.7361C26.1509 10.5121 25.9909 10.2881 25.7669 10.2881V10.3041Z" fill="white"/>
</g>
<defs>
<clipPath id="clip0_48_5620">
<rect width="40" height="40" fill="white" transform="translate(0.486816)"/>
</clipPath>
</defs>
</svg>
