<svg width="176" height="42" viewBox="0 0 176 42" fill="none" xmlns="http://www.w3.org/2000/svg">
<g clip-path="url(#clip0_13_3620)">
<mask id="mask0_13_3620" style="mask-type:luminance" maskUnits="userSpaceOnUse" x="0" y="0" width="43" height="42">
<path d="M42.6239 0.71875H0.982666V41.5513H42.6239V0.71875Z" fill="white"/>
</mask>
<g mask="url(#mask0_13_3620)">
<path d="M21.8033 41.5513C33.3135 41.5513 42.6239 32.4218 42.6239 21.135C42.6239 9.8483 33.3135 0.71875 21.8033 0.71875C10.293 0.71875 0.982666 9.8483 0.982666 21.135C0.982666 32.4218 10.293 41.5513 21.8033 41.5513Z" fill="white"/>
<path fill-rule="evenodd" clip-rule="evenodd" d="M21.8426 7.76855C20.3498 7.76855 19.1713 8.34637 18.3856 9.27089C17.6392 10.1954 17.325 11.351 17.325 12.4682C17.325 13.6623 17.7964 14.972 18.5428 16.0121C19.2499 17.0137 20.3891 17.9767 21.8426 17.9767C23.2961 17.9767 24.4354 17.0137 25.1425 16.0121C25.8889 14.972 26.3603 13.6623 26.3603 12.4682C26.3603 11.351 26.046 10.1954 25.2996 9.27089C24.514 8.34637 23.3354 7.76855 21.8426 7.76855ZM19.3677 12.4682C19.3677 11.6977 19.6034 11.0043 19.957 10.5421C20.3105 10.1184 20.8998 9.77166 21.8033 9.77166C22.7462 9.77166 23.2961 10.1184 23.6497 10.5421C24.0425 11.0043 24.239 11.6977 24.239 12.4682C24.239 13.1615 23.9247 14.086 23.414 14.8565C22.864 15.6269 22.2748 15.9736 21.8033 15.9736C21.3319 15.9736 20.7427 15.6269 20.1927 14.8565C19.682 14.086 19.3677 13.1615 19.3677 12.4682Z" fill="black"/>
<path d="M14.9678 22.5216C12.8858 22.2904 11.1573 23.9468 11.1573 25.6033C11.1573 27.2597 12.4929 28.762 15.0071 28.762C15.9107 28.762 16.8535 28.3768 17.8356 27.6449C19.0141 26.7974 19.9962 25.7959 20.9783 24.7943C21.9604 23.7928 22.9425 22.7912 24.1603 21.9437C25.3389 21.0963 26.6745 20.4414 28.2066 20.4414C31.6636 20.4414 34.1385 22.6756 34.1385 25.6418C34.1385 28.5694 31.2708 31.0733 28.0495 30.7266C26.7531 30.5725 25.221 30.1488 24.0032 28.9931L25.4567 27.5678C26.2424 28.2997 27.2638 28.6464 28.2852 28.762C30.3672 28.9931 32.0957 27.3367 32.0957 25.6803C32.0957 24.0239 30.7601 22.5216 28.2459 22.5216C27.3423 22.5216 26.3995 22.9068 25.4174 23.6387C24.2389 24.4861 23.2568 25.4877 22.2747 26.4892C21.2926 27.4908 20.3105 28.4924 19.0927 29.3398C17.9141 30.1873 16.5785 30.8422 15.0464 30.8422C11.5894 30.8422 9.1145 28.6079 9.1145 25.6418C9.1145 22.7142 11.9822 20.2103 15.2035 20.557C16.4999 20.7111 18.032 21.1348 19.2498 22.2904L17.7963 23.7157C17.0106 22.9838 15.9892 22.6371 14.9678 22.5216Z" fill="black"/>
</g>
<path d="M124.492 26.4128H124.021C123.863 26.721 123.706 26.9907 123.471 27.2603C123.274 27.53 122.999 27.7611 122.646 27.9537C122.331 28.1463 121.939 28.3389 121.467 28.4545C120.996 28.57 120.446 28.6471 119.817 28.6471C118.992 28.6471 118.207 28.493 117.499 28.2233C116.792 27.9152 116.164 27.4914 115.614 26.9521C115.103 26.3743 114.671 25.6809 114.357 24.8335C114.082 24.0245 113.925 23.0615 113.925 21.9829V21.5206C113.925 20.4806 114.082 19.5175 114.396 18.7086C114.71 17.8996 115.142 17.2062 115.692 16.6284C116.242 16.0506 116.91 15.6269 117.617 15.3187C118.364 15.0105 119.149 14.8564 119.935 14.8564C121.035 14.8564 121.899 15.0491 122.528 15.4728C123.156 15.858 123.667 16.3973 124.021 17.1292H124.492V15.2417H127.91V34.3867H120.524V31.5362H124.492V26.4128ZM120.917 25.4883C121.978 25.4883 122.842 25.1802 123.51 24.5253C124.178 23.8704 124.531 22.9844 124.531 21.9444V21.6362C124.531 20.5576 124.178 19.7101 123.51 19.0553C122.842 18.4004 122.017 18.0537 120.917 18.0537C119.856 18.0537 118.992 18.3619 118.324 19.0167C117.657 19.6331 117.342 20.5191 117.342 21.5977V21.9058C117.342 23.023 117.657 23.8704 118.324 24.5253C118.992 25.1802 119.856 25.4883 120.917 25.4883Z" fill="white"/>
<path d="M140.088 15.2803H143.506V28.3005H140.088V26.4129H139.616C139.027 27.9153 137.731 28.6857 135.767 28.6857C135.099 28.6857 134.47 28.5701 133.881 28.3775C133.292 28.1849 132.781 27.8382 132.349 27.4145C131.917 26.9907 131.563 26.4514 131.327 25.7966C131.092 25.1417 130.974 24.3713 130.974 23.4468V15.2803H134.392V22.7534C134.392 23.6779 134.627 24.4098 135.059 24.9491C135.531 25.4499 136.199 25.7195 137.102 25.7195C138.124 25.7195 138.87 25.4114 139.341 24.7565C139.813 24.1017 140.088 23.2157 140.088 22.1371V15.2803Z" fill="white"/>
<path d="M146.059 15.2797H152.069V17.1673H152.541C152.777 16.4354 153.209 15.8961 153.798 15.5109C154.427 15.1257 155.134 14.8945 155.998 14.8945C157.334 14.8945 158.394 15.3183 159.219 16.1272C160.044 16.9362 160.437 18.1688 160.437 19.8253V20.4031L156.901 21.1735V20.3646C156.901 19.6327 156.705 19.0934 156.312 18.6696C155.919 18.2459 155.369 18.0148 154.584 18.0148C153.837 18.0148 153.209 18.2844 152.777 18.7852C152.344 19.286 152.109 20.0179 152.109 20.9809V25.1797H155.212V28.3385H145.941V25.1797H148.691V18.4H145.941V15.2797H146.059Z" fill="white"/>
<path d="M172.222 15.2803H175.64V28.3005H172.222V26.4129H171.751C171.162 27.9153 169.865 28.6857 167.901 28.6857C167.233 28.6857 166.605 28.5701 166.015 28.3775C165.426 28.1849 164.915 27.8382 164.483 27.4145C164.051 26.9907 163.698 26.4514 163.462 25.7966C163.226 25.1417 163.108 24.3713 163.108 23.4468V15.2803H166.526V22.7534C166.526 23.6779 166.762 24.4098 167.194 24.9491C167.665 25.4499 168.333 25.7195 169.237 25.7195C170.258 25.7195 171.005 25.4114 171.476 24.7565C171.947 24.1017 172.222 23.2157 172.222 22.1371V15.2803Z" fill="white"/>
<path d="M74.8369 22.907C74.8369 23.2922 74.9547 23.6389 75.1119 23.9856C75.3083 24.2937 75.544 24.5634 75.819 24.833C76.1333 25.0642 76.4868 25.2568 76.8404 25.3723C77.2332 25.4879 77.6653 25.5649 78.0975 25.5649C78.9617 25.5649 79.5903 25.4108 80.0617 25.1412C80.5331 24.833 80.8474 24.4863 81.0438 24.1011L83.9901 25.6805C83.833 26.0272 83.5973 26.3739 83.3223 26.7206C83.0473 27.0673 82.6544 27.3754 82.183 27.6836C81.7116 27.9918 81.1616 28.2229 80.4938 28.4155C79.826 28.6081 79.0796 28.6852 78.176 28.6852C77.1547 28.6852 76.2511 28.5311 75.4262 28.2229C74.6012 27.9147 73.8548 27.4525 73.2655 26.8747C72.6763 26.2968 72.2048 25.5649 71.8513 24.6789C71.537 23.8315 71.3799 22.8684 71.3799 21.7513V21.5972C71.3799 20.5957 71.537 19.6712 71.8906 18.8622C72.2441 18.0533 72.7548 17.3214 73.3441 16.7436C73.9726 16.1657 74.6798 15.7035 75.5047 15.3953C76.3297 15.0486 77.2332 14.8945 78.176 14.8945C79.3153 14.8945 80.3367 15.0871 81.1616 15.5109C81.9866 15.8961 82.6937 16.3969 83.2044 17.0132C83.7544 17.591 84.1472 18.2844 84.3829 19.0163C84.6186 19.7482 84.7758 20.4416 84.7758 21.135V22.907H74.8369ZM78.0582 17.9377C77.1939 17.9377 76.4868 18.1688 75.9368 18.5926C75.3869 19.0163 75.0333 19.5171 74.8762 20.0564H81.2402C81.1224 19.44 80.7688 18.9393 80.2188 18.5155C79.6296 18.1688 78.9224 17.9377 78.0582 17.9377Z" fill="white"/>
<path d="M96.8359 15.3184H100.607L97.3466 21.4432V21.9055L100.804 28.3386H96.8752L94.361 23.2537H93.8896L91.3754 28.3386H87.447L90.904 21.9055V21.4432L87.6042 15.3184H91.4147L93.9289 20.095H94.4003L96.8359 15.3184Z" fill="white"/>
<path d="M65.4087 17.2058H64.9373C64.7802 16.8976 64.6231 16.628 64.3873 16.3583C64.1909 16.0887 63.9159 15.8575 63.5624 15.6649C63.2481 15.4723 62.8553 15.2797 62.3839 15.1642C61.9125 15.0486 61.3625 14.9716 60.7339 14.9716C59.909 14.9716 59.1233 15.1256 58.4162 15.3953C57.709 15.7035 57.0805 16.1272 56.5305 16.6665C56.0198 17.2443 55.5877 17.9377 55.2734 18.7852C54.9984 19.5941 54.8413 20.5571 54.8413 21.6357V22.098C54.8413 23.1381 54.9984 24.1011 55.3127 24.91C55.627 25.719 56.0591 26.4124 56.6091 26.9902C57.1591 27.568 57.8269 27.9918 58.534 28.2999C59.2804 28.6081 60.0661 28.7622 60.8518 28.7622C61.9517 28.7622 62.7767 28.5696 63.4445 28.1458C64.0731 27.7606 64.5838 27.2213 64.9373 26.4894H65.4087V28.377H68.8265V9.19336H62.6588V12.0439H65.4087V17.2058ZM61.8339 18.1303C62.8946 18.1303 63.7588 18.4385 64.4266 19.0933C65.0945 19.7482 65.448 20.6342 65.448 21.6743V21.9824C65.448 23.061 65.0945 23.9085 64.4266 24.5634C63.7588 25.2182 62.9338 25.5649 61.8339 25.5649C60.7732 25.5649 59.909 25.2567 59.2411 24.6019C58.5733 23.9855 58.259 23.0995 58.259 22.021V21.7128C58.259 20.5957 58.5733 19.7482 59.2411 19.0933C59.909 18.4385 60.7732 18.1303 61.8339 18.1303Z" fill="white"/>
<path d="M109.996 23.4844H105.007V28.2995H109.996V23.4844Z" fill="white"/>
</g>
<defs>
<clipPath id="clip0_13_3620">
<rect width="174.814" height="40.8326" fill="white" transform="translate(0.982666 0.71875)"/>
</clipPath>
</defs>
</svg>
