<svg width="25" height="25" viewBox="0 0 25 25" fill="none" xmlns="http://www.w3.org/2000/svg">
<circle cx="12.5" cy="12.4922" r="12" fill="#8A8F98"/>
<path d="M17.8841 7.53871C16.8074 7.05087 15.6417 6.6968 14.4274 6.49222C14.4167 6.49189 14.4061 6.49383 14.3964 6.49791C14.3866 6.50199 14.3778 6.50811 14.3707 6.51583C14.225 6.77548 14.055 7.11382 13.9417 7.37347C12.6537 7.18463 11.3438 7.18463 10.0558 7.37347C9.9425 7.10595 9.7725 6.77548 9.61868 6.51583C9.61059 6.50009 9.5863 6.49222 9.56201 6.49222C8.34769 6.6968 7.19004 7.05087 6.10525 7.53871C6.09716 7.53871 6.08906 7.54658 6.08097 7.55445C3.879 10.7568 3.27184 13.8727 3.57137 16.9571C3.57137 16.9728 3.57947 16.9885 3.59566 16.9964C5.05284 18.035 6.45336 18.6645 7.83768 19.0815C7.86197 19.0894 7.88625 19.0815 7.89435 19.0658C8.21817 18.633 8.5096 18.1767 8.76056 17.6967C8.77675 17.6652 8.76056 17.6338 8.72818 17.6259C8.26674 17.4528 7.82959 17.2482 7.40053 17.0122C7.36814 16.9964 7.36814 16.9492 7.39243 16.9256C7.48148 16.8627 7.57053 16.7918 7.65958 16.7289C7.67577 16.7132 7.70006 16.7132 7.71625 16.721C10.5011 17.9564 13.5045 17.9564 16.257 16.721C16.2731 16.7132 16.2974 16.7132 16.3136 16.7289C16.4027 16.7997 16.4917 16.8627 16.5808 16.9335C16.6132 16.9571 16.6132 17.0043 16.5727 17.02C16.1517 17.2639 15.7065 17.4606 15.245 17.6338C15.2126 17.6416 15.2045 17.681 15.2126 17.7046C15.4717 18.1845 15.7631 18.6409 16.0789 19.0737C16.1031 19.0815 16.1274 19.0894 16.1517 19.0815C17.5441 18.6645 18.9446 18.035 20.4018 16.9964C20.418 16.9885 20.4261 16.9728 20.4261 16.9571C20.7823 13.3927 19.8351 10.3005 17.9165 7.55445C17.9084 7.54658 17.9003 7.53871 17.8841 7.53871ZM9.18153 15.0765C8.34769 15.0765 7.65148 14.3291 7.65148 13.4085C7.65148 12.4879 8.3315 11.7404 9.18153 11.7404C10.0396 11.7404 10.7197 12.4957 10.7116 13.4085C10.7116 14.3291 10.0316 15.0765 9.18153 15.0765ZM14.8241 15.0765C13.9902 15.0765 13.294 14.3291 13.294 13.4085C13.294 12.4879 13.974 11.7404 14.8241 11.7404C15.6822 11.7404 16.3622 12.4957 16.3541 13.4085C16.3541 14.3291 15.6822 15.0765 14.8241 15.0765Z" fill="#020202"/>
</svg>
