<svg width="252" height="41" viewBox="0 0 252 41" fill="none" xmlns="http://www.w3.org/2000/svg">
<path d="M90.5938 32.0397C90.0854 32.0397 89.6829 31.8914 89.3863 31.5948C89.1109 31.2982 88.9732 30.8851 88.9732 30.3555V9.79504H103.305V11.3204H90.721V19.9005H102.352V21.4258H90.721V30.4826H103.305V32.0397H90.5938ZM107.048 16.1824H108.7V18.8836C109.23 17.9726 109.897 17.2523 110.702 16.7227C111.528 16.193 112.365 15.9282 113.213 15.9282H115.342C116.719 15.9282 117.831 16.4155 118.679 17.39C119.547 18.3434 119.981 19.6145 119.981 21.2034V32.0397H118.297V21.1716C118.297 20.07 118.022 19.1802 117.471 18.5022C116.92 17.8031 116.2 17.4536 115.31 17.4536H113.244C112.291 17.4536 111.391 17.8455 110.543 18.6294C109.696 19.4132 109.103 20.4301 108.764 21.6801V32.0397H107.048V16.1824ZM129.243 38.4907C127.929 38.4907 126.849 38.1411 126.001 37.442C125.154 36.7641 124.677 35.8637 124.571 34.7409H126.287C126.372 35.4188 126.679 35.959 127.209 36.3616C127.76 36.7853 128.437 36.9971 129.243 36.9971H131.88C133.066 36.9971 133.988 36.6052 134.645 35.8213C135.302 35.0587 135.63 33.9888 135.63 32.6117V29.4975C135.121 30.2602 134.475 30.8745 133.691 31.3406C132.929 31.8067 132.155 32.0397 131.372 32.0397H129.02C127.452 32.0397 126.181 31.4995 125.207 30.419C124.232 29.3386 123.745 27.9086 123.745 26.129V22.0296C123.745 20.2077 124.253 18.7353 125.27 17.6125C126.308 16.4896 127.675 15.9282 129.37 15.9282H131.721C132.484 15.9282 133.225 16.1401 133.946 16.5638C134.687 16.9663 135.259 17.5065 135.662 18.1845V16.1824H137.314V32.6117C137.314 34.4549 136.837 35.8955 135.884 36.9336C134.931 37.9717 133.596 38.4907 131.88 38.4907H129.243ZM131.34 30.5144C132.399 30.5144 133.321 30.1013 134.105 29.275C134.91 28.4276 135.418 27.4425 135.63 26.3197V21.0445C135.439 19.9852 134.973 19.1272 134.232 18.4705C133.511 17.7925 132.675 17.4536 131.721 17.4536H129.401C128.215 17.4536 127.262 17.8773 126.541 18.7247C125.821 19.5721 125.461 20.6738 125.461 22.0296V26.129C125.461 27.4213 125.789 28.4806 126.446 29.3068C127.124 30.1119 127.993 30.5144 129.052 30.5144H131.34ZM146.253 32.294C144.77 32.294 143.584 31.9126 142.694 31.1499C141.804 30.3661 141.359 29.328 141.359 28.0357V26.8281C141.359 25.5358 141.815 24.5083 142.726 23.7456C143.637 22.983 144.844 22.6016 146.348 22.6016H148.414C149.134 22.6016 149.876 22.7181 150.638 22.9512C151.422 23.1842 152.09 23.502 152.64 23.9045V20.8221C152.64 19.8263 152.333 19.0107 151.719 18.3751C151.104 17.7396 150.31 17.4218 149.335 17.4218H146.857C145.861 17.4218 145.056 17.6548 144.442 18.1209C143.827 18.587 143.52 19.212 143.52 19.9958H141.804C141.804 18.7671 142.27 17.7819 143.202 17.0405C144.134 16.299 145.353 15.9282 146.857 15.9282H149.335C150.84 15.9282 152.037 16.3731 152.926 17.2629C153.837 18.1527 154.293 19.3391 154.293 20.8221V32.0397H152.672V29.561C152.121 30.4085 151.443 31.0758 150.638 31.5631C149.833 32.0503 149.018 32.294 148.191 32.294H146.253ZM148.223 30.7686C149.113 30.7686 149.96 30.4508 150.765 29.8153C151.592 29.1797 152.217 28.3429 152.64 27.3048V25.5888C152.174 25.1439 151.549 24.7837 150.765 24.5083C150.003 24.2329 149.219 24.0952 148.414 24.0952H146.348C145.353 24.0952 144.558 24.3494 143.965 24.8579C143.372 25.3451 143.075 26.0019 143.075 26.8281V28.0357C143.075 28.8619 143.361 29.5293 143.933 30.0377C144.505 30.525 145.278 30.7686 146.253 30.7686H148.223ZM163.536 38.4907C162.222 38.4907 161.142 38.1411 160.294 37.442C159.447 36.7641 158.97 35.8637 158.864 34.7409H160.58C160.665 35.4188 160.972 35.959 161.502 36.3616C162.053 36.7853 162.731 36.9971 163.536 36.9971H166.173C167.36 36.9971 168.281 36.6052 168.938 35.8213C169.595 35.0587 169.923 33.9888 169.923 32.6117V29.4975C169.415 30.2602 168.768 30.8745 167.985 31.3406C167.222 31.8067 166.449 32.0397 165.665 32.0397H163.313C161.745 32.0397 160.474 31.4995 159.5 30.419C158.525 29.3386 158.038 27.9086 158.038 26.129V22.0296C158.038 20.2077 158.546 18.7353 159.563 17.6125C160.601 16.4896 161.968 15.9282 163.663 15.9282H166.014C166.777 15.9282 167.518 16.1401 168.239 16.5638C168.98 16.9663 169.552 17.5065 169.955 18.1845V16.1824H171.607V32.6117C171.607 34.4549 171.131 35.8955 170.177 36.9336C169.224 37.9717 167.889 38.4907 166.173 38.4907H163.536ZM165.633 30.5144C166.692 30.5144 167.614 30.1013 168.398 29.275C169.203 28.4276 169.711 27.4425 169.923 26.3197V21.0445C169.732 19.9852 169.266 19.1272 168.525 18.4705C167.804 17.7925 166.968 17.4536 166.014 17.4536H163.694C162.508 17.4536 161.555 17.8773 160.834 18.7247C160.114 19.5721 159.754 20.6738 159.754 22.0296V26.129C159.754 27.4213 160.082 28.4806 160.739 29.3068C161.417 30.1119 162.286 30.5144 163.345 30.5144H165.633ZM181.15 32.294C179.476 32.294 178.12 31.7855 177.082 30.7686C176.065 29.7517 175.557 28.4064 175.557 26.7328V21.8072C175.557 20.0488 176.065 18.6294 177.082 17.5489C178.12 16.4684 179.476 15.9282 181.15 15.9282H183.756C185.366 15.9282 186.658 16.4579 187.633 17.5171C188.628 18.5552 189.126 19.9429 189.126 21.6801V24.3494H177.273V26.7328C177.273 27.9404 177.622 28.9149 178.322 29.6564C179.042 30.3979 179.985 30.7686 181.15 30.7686H183.565C184.709 30.7686 185.631 30.4402 186.33 29.7835C187.05 29.1056 187.41 28.2264 187.41 27.1459H189.063C189.063 28.6924 188.554 29.9424 187.537 30.8957C186.542 31.8279 185.217 32.294 183.565 32.294H181.15ZM187.442 22.8876V21.6801C187.442 20.4089 187.103 19.392 186.425 18.6294C185.747 17.8455 184.857 17.4536 183.756 17.4536H181.15C179.985 17.4536 179.042 17.8561 178.322 18.6611C177.622 19.4662 177.273 20.5149 177.273 21.8072V22.8876H187.442ZM197.894 13.0046H190.84V9.79504H208.667V13.0046H201.612V32.0397H197.894V13.0046ZM207.245 16.1824H210.645V18.3434C211.069 17.6866 211.672 17.157 212.456 16.7545C213.261 16.3307 214.088 16.1189 214.935 16.1189H216.842V19.2967H214.935C213.727 19.2967 212.753 19.6674 212.011 20.4089C211.27 21.1504 210.899 22.1144 210.899 23.3007V32.0397H207.245V16.1824ZM222.86 32.294C221.25 32.294 219.947 31.8914 218.952 31.0864C217.977 30.2602 217.49 29.1691 217.49 27.8132V26.6692C217.49 25.3345 217.998 24.2647 219.015 23.4596C220.053 22.6546 221.409 22.2521 223.083 22.2521H225.053C225.646 22.2521 226.282 22.3368 226.96 22.5063C227.638 22.6758 228.241 22.8982 228.771 23.1736V21.2034C228.771 20.5466 228.559 20.017 228.136 19.6145C227.712 19.212 227.161 19.0107 226.483 19.0107H223.814C223.115 19.0107 222.553 19.1802 222.129 19.5192C221.706 19.8369 221.494 20.2606 221.494 20.7903H217.935C217.935 19.3285 218.475 18.1527 219.555 17.2629C220.636 16.3731 222.055 15.9282 223.814 15.9282H226.483C228.263 15.9282 229.693 16.4155 230.773 17.39C231.854 18.3434 232.394 19.6145 232.394 21.2034V32.0397H228.994V30.0377C228.485 30.7156 227.85 31.2665 227.087 31.6902C226.324 32.0927 225.572 32.294 224.831 32.294H222.86ZM225.053 29.4339C225.9 29.4339 226.663 29.2009 227.341 28.7348C228.019 28.2475 228.496 27.612 228.771 26.8281V26.0654C228.411 25.7688 227.903 25.5358 227.246 25.3663C226.589 25.1757 225.9 25.0803 225.18 25.0803H223.178C222.543 25.0803 222.024 25.2392 221.621 25.557C221.24 25.8748 221.049 26.2879 221.049 26.7963V27.6861C221.049 28.2158 221.25 28.6395 221.653 28.9573C222.055 29.275 222.585 29.4339 223.242 29.4339H225.053ZM241.457 32.294C239.508 32.294 237.94 31.7325 236.754 30.6097C235.588 29.4869 235.006 28.0039 235.006 26.1608V22.1567C235.006 20.928 235.271 19.8475 235.8 18.9154C236.33 17.962 237.082 17.2311 238.057 16.7227C239.031 16.193 240.154 15.9282 241.425 15.9282H243.967C245.789 15.9282 247.251 16.4579 248.353 17.5171C249.475 18.5552 250.037 19.9323 250.037 21.6483H246.446C246.446 20.8856 246.213 20.2712 245.747 19.8052C245.302 19.3179 244.709 19.0743 243.967 19.0743H241.457C240.631 19.0743 239.953 19.3814 239.423 19.9958C238.915 20.6102 238.66 21.4047 238.66 22.3792V25.9383C238.66 26.8917 238.915 27.6649 239.423 28.2581C239.953 28.8513 240.641 29.1479 241.489 29.1479H243.999C244.783 29.1479 245.408 28.8619 245.874 28.2899C246.361 27.7179 246.605 26.9764 246.605 26.0654H250.196C250.196 27.9298 249.624 29.4339 248.48 30.5779C247.357 31.722 245.863 32.294 243.999 32.294H241.457Z" fill="white"/>
<path d="M44.4851 0.15658L17.6124 35.7833C17.4168 36.0427 17.6018 36.414 17.9266 36.414H30.0496C30.1731 36.414 30.2895 36.356 30.3639 36.2574L57.2366 0.63063C57.4322 0.371288 57.2472 0 56.9224 0H44.7994C44.6759 0 44.5595 0.0579743 44.4851 0.15658Z" fill="white"/>
<path d="M39.7856 0H27.4665L23.466 0.0876141C17.1749 0.225392 11.3002 3.26165 7.54922 8.31404L0.466416 17.8541C0.273597 18.1139 0.458979 18.4824 0.782446 18.4824H12.7356C13.0605 18.4824 13.2455 18.8537 13.0499 19.113L0.475675 35.7833C0.280057 36.0427 0.465066 36.414 0.789912 36.414H12.9129C13.0364 36.414 13.1528 36.356 13.2271 36.2574L40.0999 0.63063C40.2955 0.371288 40.1105 0 39.7856 0Z" fill="#FF974B"/>
<path d="M61.0111 0.159863L47.7697 18.0998C47.5779 18.3597 47.7634 18.7272 48.0864 18.7272H55.2327C61.8383 18.7272 68.0515 15.5908 71.9743 10.2761L79.096 0.627349C79.2878 0.367503 79.1022 0 78.7793 0H61.3278C61.2028 0 61.0853 0.0593295 61.0111 0.159863Z" fill="#844CA3"/>
</svg>
