<svg width="19" height="19" viewBox="0 0 19 19" fill="none" xmlns="http://www.w3.org/2000/svg">
<path d="M9.8 2.71777C9.08392 2.71777 8.39716 3.00224 7.89081 3.50859C7.38446 4.01493 7.1 4.70169 7.1 5.41777V6.31777H6.2C5.48392 6.31777 4.79716 6.60224 4.29081 7.10859C3.78446 7.61493 3.5 8.30169 3.5 9.01777V14.4178C3.5 15.1339 3.78446 15.8206 4.29081 16.327C4.79716 16.8333 5.48392 17.1178 6.2 17.1178H13.4C14.1161 17.1178 14.8028 16.8333 15.3092 16.327C15.8155 15.8206 16.1 15.1339 16.1 14.4178V9.01777C16.1 8.30169 15.8155 7.61493 15.3092 7.10859C14.8028 6.60224 14.1161 6.31777 13.4 6.31777H12.5V5.41777C12.5 4.70169 12.2155 4.01493 11.7092 3.50859C11.2028 3.00224 10.5161 2.71777 9.8 2.71777ZM8 5.41777C8 4.94038 8.18964 4.48255 8.52721 4.14498C8.86477 3.80742 9.32261 3.61777 9.8 3.61777C10.2774 3.61777 10.7352 3.80742 11.0728 4.14498C11.4104 4.48255 11.6 4.94038 11.6 5.41777V6.31777H8V5.41777ZM9.8 12.6178C9.56131 12.6178 9.33239 12.523 9.1636 12.3542C8.99482 12.1854 8.9 11.9565 8.9 11.7178C8.9 11.4791 8.99482 11.2502 9.1636 11.0814C9.33239 10.9126 9.56131 10.8178 9.8 10.8178C10.0387 10.8178 10.2676 10.9126 10.4364 11.0814C10.6052 11.2502 10.7 11.4791 10.7 11.7178C10.7 11.9565 10.6052 12.1854 10.4364 12.3542C10.2676 12.523 10.0387 12.6178 9.8 12.6178Z" fill="#FF0000"/>
</svg>
