<svg width="216" height="47" viewBox="0 0 216 47" fill="none" xmlns="http://www.w3.org/2000/svg">
<path fill-rule="evenodd" clip-rule="evenodd" d="M29.5524 15.4922C28.0611 15.4922 27.0394 15.4922 23.4231 15.4922C18.7141 15.8787 14.4553 19.5638 14.4553 25.3238C14.4553 28.7465 16.7046 35.2963 27.6812 35.2963C29.1801 36.3472 29.8251 36.4726 30.7503 36.1611C30.8341 35.2214 30.2259 34.6226 28.8884 33.5269C28.9327 32.2081 28.9084 31.4945 28.3334 30.5016C27.4966 30.6223 26.8326 31.4726 26.543 32.8606C24.9291 32.9853 23.1982 31.4207 23.1982 29.7988V28.7465C23.398 28.0757 23.6442 27.8189 24.3836 27.6277H28.9463C29.721 27.4599 29.9459 27.1576 30.0857 26.3581H24.4535C24.0012 26.2883 23.7697 26.1289 23.3914 25.6343L23.5351 25.4844H31.9329C32.2333 25.38 32.3411 25.2727 32.4345 24.9995C32.4345 24.9995 32.6826 20.4111 32.4345 18.5034C32.1864 16.5957 31.2731 15.8537 29.5524 15.4922ZM22.4978 22.1282C23.008 22.1282 23.4216 21.7147 23.4216 21.2045C23.4216 20.6943 23.008 20.2807 22.4978 20.2807C21.9877 20.2807 21.5741 20.6943 21.5741 21.2045C21.5741 21.7147 21.9877 22.1282 22.4978 22.1282Z" fill="white"/>
<path d="M45.1867 33.7522C44.4933 33.7522 43.8347 33.6655 43.2107 33.4922C42.604 33.3015 42.0407 33.0415 41.5207 32.7122C41.0007 32.3655 40.55 31.9582 40.1687 31.4902L41.6767 29.9822C42.1273 30.5369 42.6473 30.9529 43.2367 31.2302C43.826 31.4902 44.4847 31.6202 45.2127 31.6202C45.9407 31.6202 46.504 31.4989 46.9027 31.2562C47.3013 30.9962 47.5007 30.6409 47.5007 30.1902C47.5007 29.7395 47.336 29.3929 47.0067 29.1502C46.6947 28.8902 46.2873 28.6822 45.7847 28.5262C45.282 28.3529 44.7447 28.1882 44.1727 28.0322C43.618 27.8589 43.0893 27.6422 42.5867 27.3822C42.084 27.1222 41.668 26.7669 41.3387 26.3162C41.0267 25.8655 40.8707 25.2675 40.8707 24.5222C40.8707 23.7769 41.0527 23.1355 41.4167 22.5982C41.7807 22.0435 42.2833 21.6189 42.9247 21.3242C43.5833 21.0295 44.372 20.8822 45.2907 20.8822C46.2613 20.8822 47.1193 21.0555 47.8647 21.4022C48.6273 21.7315 49.2513 22.2342 49.7367 22.9102L48.2287 24.4182C47.882 23.9675 47.4487 23.6209 46.9287 23.3782C46.426 23.1355 45.854 23.0142 45.2127 23.0142C44.5367 23.0142 44.0167 23.1355 43.6527 23.3782C43.306 23.6035 43.1327 23.9242 43.1327 24.3402C43.1327 24.7562 43.2887 25.0769 43.6007 25.3022C43.9127 25.5275 44.32 25.7182 44.8227 25.8742C45.3427 26.0302 45.88 26.1949 46.4347 26.3682C46.9893 26.5242 47.518 26.7409 48.0207 27.0182C48.5233 27.2955 48.9307 27.6682 49.2427 28.1362C49.572 28.6042 49.7367 29.2195 49.7367 29.9822C49.7367 31.1435 49.3207 32.0622 48.4887 32.7382C47.674 33.4142 46.5733 33.7522 45.1867 33.7522ZM52.3564 33.4922V21.1422H54.6964V33.4922H52.3564ZM60.7024 33.4922V26.0302C60.7024 25.1115 60.4164 24.3922 59.8444 23.8722C59.2897 23.3349 58.5877 23.0662 57.7384 23.0662C57.1664 23.0662 56.655 23.1875 56.2044 23.4302C55.7537 23.6729 55.3897 24.0109 55.1124 24.4442C54.835 24.8775 54.6964 25.3975 54.6964 26.0042L53.7344 25.5362C53.7344 24.6002 53.9337 23.7855 54.3324 23.0922C54.7484 22.3989 55.3117 21.8615 56.0224 21.4802C56.733 21.0815 57.5304 20.8822 58.4144 20.8822C59.281 20.8822 60.061 21.0729 60.7544 21.4542C61.465 21.8355 62.0197 22.3729 62.4184 23.0662C62.8344 23.7595 63.0424 24.5829 63.0424 25.5362V33.4922H60.7024ZM69.0484 33.4922V26.0302C69.0484 25.1115 68.7624 24.3922 68.1904 23.8722C67.6357 23.3349 66.9424 23.0662 66.1104 23.0662C65.5384 23.0662 65.0184 23.1875 64.5504 23.4302C64.0997 23.6729 63.7357 24.0109 63.4584 24.4442C63.1811 24.8775 63.0424 25.3975 63.0424 26.0042L61.7164 25.5362C61.7684 24.5829 62.0197 23.7682 62.4704 23.0922C62.9384 22.3989 63.5364 21.8615 64.2644 21.4802C64.9924 21.0815 65.7897 20.8822 66.6564 20.8822C67.5577 20.8822 68.3637 21.0729 69.0744 21.4542C69.7851 21.8355 70.3484 22.3729 70.7644 23.0662C71.1977 23.7595 71.4144 24.5915 71.4144 25.5622V33.4922H69.0484ZM79.8506 33.7522C78.7239 33.7522 77.7012 33.4749 76.7826 32.9202C75.8639 32.3482 75.1359 31.5769 74.5986 30.6062C74.0786 29.6355 73.8186 28.5435 73.8186 27.3302C73.8186 26.1169 74.0786 25.0249 74.5986 24.0542C75.1359 23.0835 75.8552 22.3122 76.7566 21.7402C77.6752 21.1682 78.7066 20.8822 79.8506 20.8822C80.7866 20.8822 81.6186 21.0815 82.3466 21.4802C83.0919 21.8615 83.6899 22.3989 84.1406 23.0922C84.5912 23.7682 84.8426 24.5569 84.8946 25.4582V29.1762C84.8426 30.0602 84.5912 30.8489 84.1406 31.5422C83.7072 32.2355 83.1179 32.7815 82.3726 33.1802C81.6446 33.5615 80.8039 33.7522 79.8506 33.7522ZM80.2406 31.5422C81.4019 31.5422 82.3379 31.1522 83.0486 30.3722C83.7592 29.5749 84.1146 28.5609 84.1146 27.3302C84.1146 26.4809 83.9499 25.7442 83.6206 25.1202C83.3086 24.4789 82.8579 23.9849 82.2686 23.6382C81.6792 23.2742 80.9946 23.0922 80.2146 23.0922C79.4346 23.0922 78.7412 23.2742 78.1346 23.6382C77.5452 24.0022 77.0772 24.5049 76.7306 25.1462C76.4012 25.7702 76.2366 26.4895 76.2366 27.3042C76.2366 28.1362 76.4012 28.8729 76.7306 29.5142C77.0772 30.1382 77.5539 30.6322 78.1606 30.9962C78.7672 31.3602 79.4606 31.5422 80.2406 31.5422ZM83.9586 33.4922V30.1642L84.4006 27.1482L83.9586 24.1582V21.1422H86.3246V33.4922H83.9586ZM89.7314 33.4922V21.1422H92.0714V33.4922H89.7314ZM92.0714 26.4462L91.1874 26.0562C91.1874 24.4789 91.5514 23.2222 92.2794 22.2862C93.0074 21.3502 94.0561 20.8822 95.4254 20.8822C96.0494 20.8822 96.6127 20.9949 97.1154 21.2202C97.6181 21.4282 98.0861 21.7835 98.5194 22.2862L96.9854 23.8722C96.7254 23.5949 96.4394 23.3955 96.1274 23.2742C95.8154 23.1529 95.4514 23.0922 95.0354 23.0922C94.1687 23.0922 93.4581 23.3695 92.9034 23.9242C92.3487 24.4789 92.0714 25.3195 92.0714 26.4462ZM102.014 33.4922V15.9682H104.354V33.4922H102.014ZM98.9722 23.2742V21.1422H107.396V23.2742H98.9722Z" fill="white"/>
<path d="M113.797 33.4922L108.909 21.1422H111.353L114.889 30.7622H114.109L117.619 21.1422H118.971L122.481 30.7622H121.701L125.237 21.1422H127.681L122.819 33.4922H121.441L117.879 24.1582H118.737L115.149 33.4922H113.797ZM138.497 33.4922V26.2902C138.497 25.3542 138.202 24.5829 137.613 23.9762C137.023 23.3695 136.261 23.0662 135.325 23.0662C134.701 23.0662 134.146 23.2049 133.661 23.4822C133.175 23.7595 132.794 24.1409 132.517 24.6262C132.239 25.1115 132.101 25.6662 132.101 26.2902L131.139 25.7442C131.139 24.8082 131.347 23.9762 131.763 23.2482C132.179 22.5202 132.759 21.9482 133.505 21.5322C134.25 21.0989 135.091 20.8822 136.027 20.8822C136.963 20.8822 137.786 21.0902 138.497 21.5062C139.225 21.9222 139.797 22.5029 140.213 23.2482C140.629 23.9935 140.837 24.8515 140.837 25.8222V33.4922H138.497ZM129.761 33.4922V14.9282H132.101V33.4922H129.761ZM149.257 33.7522C148.13 33.7522 147.107 33.4749 146.189 32.9202C145.27 32.3482 144.542 31.5769 144.005 30.6062C143.485 29.6355 143.225 28.5435 143.225 27.3302C143.225 26.1169 143.485 25.0249 144.005 24.0542C144.542 23.0835 145.261 22.3122 146.163 21.7402C147.081 21.1682 148.113 20.8822 149.257 20.8822C150.193 20.8822 151.025 21.0815 151.753 21.4802C152.498 21.8615 153.096 22.3989 153.547 23.0922C153.997 23.7682 154.249 24.5569 154.301 25.4582V29.1762C154.249 30.0602 153.997 30.8489 153.547 31.5422C153.113 32.2355 152.524 32.7815 151.779 33.1802C151.051 33.5615 150.21 33.7522 149.257 33.7522ZM149.647 31.5422C150.808 31.5422 151.744 31.1522 152.455 30.3722C153.165 29.5749 153.521 28.5609 153.521 27.3302C153.521 26.4809 153.356 25.7442 153.027 25.1202C152.715 24.4789 152.264 23.9849 151.675 23.6382C151.085 23.2742 150.401 23.0922 149.621 23.0922C148.841 23.0922 148.147 23.2742 147.541 23.6382C146.951 24.0022 146.483 24.5049 146.137 25.1462C145.807 25.7702 145.643 26.4895 145.643 27.3042C145.643 28.1362 145.807 28.8729 146.137 29.5142C146.483 30.1382 146.96 30.6322 147.567 30.9962C148.173 31.3602 148.867 31.5422 149.647 31.5422ZM153.365 33.4922V30.1642L153.807 27.1482L153.365 24.1582V21.1422H155.731V33.4922H153.365ZM159.138 33.4922V14.9282H161.478V33.4922H159.138ZM170.621 33.7522C169.391 33.7522 168.281 33.4749 167.293 32.9202C166.305 32.3482 165.525 31.5769 164.953 30.6062C164.381 29.6355 164.095 28.5349 164.095 27.3042C164.095 26.0909 164.373 24.9989 164.927 24.0282C165.499 23.0575 166.262 22.2949 167.215 21.7402C168.186 21.1682 169.269 20.8822 170.465 20.8822C171.609 20.8822 172.615 21.1422 173.481 21.6622C174.365 22.1822 175.05 22.9015 175.535 23.8202C176.038 24.7389 176.289 25.7789 176.289 26.9402C176.289 27.1135 176.281 27.3042 176.263 27.5122C176.246 27.7029 176.211 27.9282 176.159 28.1882H165.733V26.2382H174.911L174.053 26.9922C174.053 26.1602 173.906 25.4582 173.611 24.8862C173.317 24.2969 172.901 23.8462 172.363 23.5342C171.826 23.2049 171.176 23.0402 170.413 23.0402C169.616 23.0402 168.914 23.2135 168.307 23.5602C167.701 23.9069 167.233 24.3922 166.903 25.0162C166.574 25.6402 166.409 26.3769 166.409 27.2262C166.409 28.0929 166.583 28.8555 166.929 29.5142C167.276 30.1555 167.77 30.6582 168.411 31.0222C169.053 31.3689 169.789 31.5422 170.621 31.5422C171.315 31.5422 171.947 31.4209 172.519 31.1782C173.109 30.9355 173.611 30.5715 174.027 30.0862L175.535 31.6202C174.946 32.3135 174.218 32.8422 173.351 33.2062C172.502 33.5702 171.592 33.7522 170.621 33.7522ZM182.767 33.7522C182.073 33.7522 181.415 33.6655 180.791 33.4922C180.184 33.3015 179.621 33.0415 179.101 32.7122C178.581 32.3655 178.13 31.9582 177.749 31.4902L179.257 29.9822C179.707 30.5369 180.227 30.9529 180.817 31.2302C181.406 31.4902 182.065 31.6202 182.793 31.6202C183.521 31.6202 184.084 31.4989 184.483 31.2562C184.881 30.9962 185.081 30.6409 185.081 30.1902C185.081 29.7395 184.916 29.3929 184.587 29.1502C184.275 28.8902 183.867 28.6822 183.365 28.5262C182.862 28.3529 182.325 28.1882 181.753 28.0322C181.198 27.8589 180.669 27.6422 180.167 27.3822C179.664 27.1222 179.248 26.7669 178.919 26.3162C178.607 25.8655 178.451 25.2675 178.451 24.5222C178.451 23.7769 178.633 23.1355 178.997 22.5982C179.361 22.0435 179.863 21.6189 180.505 21.3242C181.163 21.0295 181.952 20.8822 182.871 20.8822C183.841 20.8822 184.699 21.0555 185.445 21.4022C186.207 21.7315 186.831 22.2342 187.317 22.9102L185.809 24.4182C185.462 23.9675 185.029 23.6209 184.509 23.3782C184.006 23.1355 183.434 23.0142 182.793 23.0142C182.117 23.0142 181.597 23.1355 181.233 23.3782C180.886 23.6035 180.713 23.9242 180.713 24.3402C180.713 24.7562 180.869 25.0769 181.181 25.3022C181.493 25.5275 181.9 25.7182 182.403 25.8742C182.923 26.0302 183.46 26.1949 184.015 26.3682C184.569 26.5242 185.098 26.7409 185.601 27.0182C186.103 27.2955 186.511 27.6682 186.823 28.1362C187.152 28.6042 187.317 29.2195 187.317 29.9822C187.317 31.1435 186.901 32.0622 186.069 32.7382C185.254 33.4142 184.153 33.7522 182.767 33.7522Z" fill="white" fill-opacity="0.7"/>
<path d="M190.285 33.7509C190.061 33.7509 189.873 33.6749 189.721 33.5229C189.577 33.3629 189.505 33.1749 189.505 32.9589C189.505 32.7349 189.577 32.5509 189.721 32.4069C189.873 32.2549 190.061 32.1789 190.285 32.1789C190.509 32.1789 190.693 32.2549 190.837 32.4069C190.989 32.5509 191.065 32.7349 191.065 32.9589C191.065 33.1749 190.989 33.3629 190.837 33.5229C190.693 33.6749 190.509 33.7509 190.285 33.7509ZM195.007 33.7509C194.487 33.7509 194.015 33.6229 193.591 33.3669C193.167 33.1029 192.831 32.7469 192.583 32.2989C192.343 31.8509 192.223 31.3469 192.223 30.7869C192.223 30.2269 192.343 29.7229 192.583 29.2749C192.831 28.8269 193.163 28.4709 193.579 28.2069C194.003 27.9429 194.479 27.8109 195.007 27.8109C195.439 27.8109 195.823 27.9029 196.159 28.0869C196.503 28.2629 196.779 28.5109 196.987 28.8309C197.195 29.1429 197.311 29.5069 197.335 29.9229V31.6389C197.311 32.0469 197.195 32.4109 196.987 32.7309C196.787 33.0509 196.515 33.3029 196.171 33.4869C195.835 33.6629 195.447 33.7509 195.007 33.7509ZM195.187 32.7309C195.723 32.7309 196.155 32.5509 196.483 32.1909C196.811 31.8229 196.975 31.3549 196.975 30.7869C196.975 30.3949 196.899 30.0549 196.747 29.7669C196.603 29.4709 196.395 29.2429 196.123 29.0829C195.851 28.9149 195.535 28.8309 195.175 28.8309C194.815 28.8309 194.495 28.9149 194.215 29.0829C193.943 29.2509 193.727 29.4829 193.567 29.7789C193.415 30.0669 193.339 30.3989 193.339 30.7749C193.339 31.1589 193.415 31.4989 193.567 31.7949C193.727 32.0829 193.947 32.3109 194.227 32.4789C194.507 32.6469 194.827 32.7309 195.187 32.7309ZM196.903 33.6309V32.0949L197.107 30.7029L196.903 29.3229V27.9309H197.995V33.6309H196.903ZM199.579 33.6309V27.9309H200.659V33.6309H199.579ZM200.119 26.7909C199.919 26.7909 199.755 26.7269 199.627 26.5989C199.499 26.4629 199.435 26.2949 199.435 26.0949C199.435 25.9029 199.499 25.7429 199.627 25.6149C199.755 25.4789 199.919 25.4109 200.119 25.4109C200.319 25.4109 200.483 25.4789 200.611 25.6149C200.739 25.7429 200.803 25.9029 200.803 26.0949C200.803 26.2949 200.739 26.4629 200.611 26.5989C200.483 26.7269 200.319 26.7909 200.119 26.7909Z" fill="#5200FF"/>
</svg>
