<svg width="70" height="70" viewBox="0 0 70 70" fill="none" xmlns="http://www.w3.org/2000/svg">
<rect width="70" height="70" rx="35" fill="url(#paint0_linear_23_1337)"/>
<path d="M24 26.75C24.7293 26.75 25.4288 26.4603 25.9445 25.9445C26.4603 25.4288 26.75 24.7293 26.75 24C26.75 23.2707 26.4603 22.5712 25.9445 22.0555C25.4288 21.5397 24.7293 21.25 24 21.25C23.2707 21.25 22.5712 21.5397 22.0555 22.0555C21.5397 22.5712 21.25 23.2707 21.25 24C21.25 24.7293 21.5397 25.4288 22.0555 25.9445C22.5712 26.4603 23.2707 26.75 24 26.75ZM25.375 47.375C26.469 47.375 27.5182 46.9404 28.2918 46.1668C29.0654 45.3932 29.5 44.344 29.5 43.25C29.5 42.156 29.0654 41.1068 28.2918 40.3332C27.5182 39.5596 26.469 39.125 25.375 39.125C24.281 39.125 23.2318 39.5596 22.4582 40.3332C21.6846 41.1068 21.25 42.156 21.25 43.25C21.25 44.344 21.6846 45.3932 22.4582 46.1668C23.2318 46.9404 24.281 47.375 25.375 47.375ZM44.625 48.75C45.719 48.75 46.7682 48.3154 47.5418 47.5418C48.3154 46.7682 48.75 45.719 48.75 44.625C48.75 43.531 48.3154 42.4818 47.5418 41.7082C46.7682 40.9346 45.719 40.5 44.625 40.5C43.531 40.5 42.4818 40.9346 41.7082 41.7082C40.9346 42.4818 40.5 43.531 40.5 44.625C40.5 45.719 40.9346 46.7682 41.7082 47.5418C42.4818 48.3154 43.531 48.75 44.625 48.75ZM33.625 37.75C35.0837 37.75 36.4826 37.1705 37.5141 36.1391C38.5455 35.1076 39.125 33.7087 39.125 32.25C39.125 30.7913 38.5455 29.3924 37.5141 28.3609C36.4826 27.3295 35.0837 26.75 33.625 26.75C32.1663 26.75 30.7674 27.3295 29.7359 28.3609C28.7045 29.3924 28.125 30.7913 28.125 32.25C28.125 33.7087 28.7045 35.1076 29.7359 36.1391C30.7674 37.1705 32.1663 37.75 33.625 37.75ZM41.875 26.75C42.6043 26.75 43.3038 26.4603 43.8195 25.9445C44.3353 25.4288 44.625 24.7293 44.625 24C44.625 23.2707 44.3353 22.5712 43.8195 22.0555C43.3038 21.5397 42.6043 21.25 41.875 21.25C41.1457 21.25 40.4462 21.5397 39.9305 22.0555C39.4147 22.5712 39.125 23.2707 39.125 24C39.125 24.7293 39.4147 25.4288 39.9305 25.9445C40.4462 26.4603 41.1457 26.75 41.875 26.75Z" stroke="white" stroke-linecap="round" stroke-linejoin="round"/>
<path d="M26.0625 26.0625L28.8125 28.8125M39.125 26.75L37.75 28.125M41.875 41.5312L37.75 36.375M28.125 39.8125L30.875 37.0625" stroke="white" stroke-linecap="round" stroke-linejoin="round"/>
<defs>
<linearGradient id="paint0_linear_23_1337" x1="35" y1="0" x2="35" y2="70" gradientUnits="userSpaceOnUse">
<stop stop-color="#5200FF"/>
<stop offset="1" stop-color="#5200FF" stop-opacity="0.1"/>
</linearGradient>
</defs>
</svg>
