<svg width="25" height="25" viewBox="0 0 25 25" fill="none" xmlns="http://www.w3.org/2000/svg">
<path d="M23.5 12.4922C23.5 6.41706 18.5751 1.49219 12.5 1.49219C6.42487 1.49219 1.5 6.41706 1.5 12.4922C1.5 18.5673 6.42487 23.4922 12.5 23.4922C18.5751 23.4922 23.5 18.5673 23.5 12.4922Z" fill="#8A8F98"/>
<path d="M6.44422 12.25C9.64307 10.827 11.7761 9.88893 12.8434 9.43564C15.8907 8.14154 16.5239 7.91672 16.9367 7.90925C17.0274 7.90769 17.2304 7.93066 17.3619 8.03956C17.4729 8.13154 17.5034 8.2558 17.518 8.34297C17.5326 8.43019 17.5508 8.62884 17.5363 8.78403C17.3712 10.5556 16.6567 14.8547 16.2932 16.8389C16.1393 17.6784 15.8365 17.96 15.5433 17.9875C14.9061 18.0474 14.4222 17.5575 13.805 17.1444C12.8392 16.4981 12.2937 16.0957 11.3562 15.465C10.2728 14.736 10.9751 14.3354 11.5925 13.6806C11.7541 13.5093 14.5617 10.9018 14.6161 10.6653C14.6229 10.6357 14.6292 10.5255 14.565 10.4673C14.5009 10.409 14.4062 10.4289 14.3378 10.4448C14.241 10.4672 12.6981 11.5084 9.70935 13.5683C9.27141 13.8754 8.87477 14.0249 8.51937 14.0171C8.12759 14.0085 7.37395 13.791 6.81369 13.605C6.12651 13.3769 5.58033 13.2564 5.62789 12.869C5.65266 12.6673 5.92476 12.4609 6.44422 12.25Z" fill="#020202"/>
</svg>
