<svg width="244" height="39" viewBox="0 0 244 39" fill="none" xmlns="http://www.w3.org/2000/svg">
<g clip-path="url(#clip0_13_3615)">
<mask id="mask0_13_3615" style="mask-type:luminance" maskUnits="userSpaceOnUse" x="0" y="0" width="39" height="39">
<path d="M38.9685 0.530273H0.968506V38.5303H38.9685V0.530273Z" fill="white"/>
</mask>
<g mask="url(#mask0_13_3615)">
<path fill-rule="evenodd" clip-rule="evenodd" d="M35.1091 8.0709C32.2294 4.38965 28.0138 2.04434 23.3529 2.04434C14.3279 2.04434 7.70757 10.4459 7.70757 19.5303C7.70757 25.8537 11.9232 30.6037 16.5841 30.6037C17.0294 30.6037 17.4451 30.574 17.8904 30.485C14.7435 28.199 12.7544 24.0428 12.7544 19.5303C12.7544 12.3459 17.6232 6.73496 23.3529 6.73496C29.6169 6.73496 33.9513 12.9396 33.9513 19.5303C33.9216 24.399 32.1998 29.2381 29.1419 32.8006C26.4701 35.9178 23.0263 37.8771 19.2263 38.5006C19.2263 38.5006 19.5529 38.5303 19.9685 38.5303C30.4482 38.5303 38.9685 30.01 38.9685 19.5303C38.9685 15.2256 37.5435 11.2475 35.1091 8.0709ZM32.2294 19.5303C32.2294 13.2068 28.0138 8.45684 23.3529 8.45684C22.9076 8.45684 22.4919 8.48652 22.0466 8.57559C25.1935 10.8615 27.1826 15.0178 27.1826 19.5303C27.1826 26.7146 22.3138 32.3256 16.5841 32.3256C10.3201 32.3256 5.98569 26.1209 5.98569 19.5303C6.01538 14.6615 7.73726 9.82246 10.7951 6.25996C13.4669 3.14277 16.9107 1.1834 20.7107 0.559961C20.7107 0.559961 20.3841 0.530273 19.9685 0.530273C9.48882 0.530273 0.968506 9.05059 0.968506 19.5303C0.968506 23.835 2.39351 27.8131 4.82788 30.9896C7.70757 34.6709 11.9232 36.9865 16.5841 36.9865C25.6091 37.0162 32.2294 28.6146 32.2294 19.5303Z" fill="white"/>
</g>
</g>
<path d="M58.1746 10.5835C61.087 10.5835 63.2432 11.5194 64.6433 13.3911C65.7364 14.8511 66.283 16.7191 66.283 18.9951C66.283 21.4583 65.6578 23.506 64.4075 25.1382C62.94 27.0549 60.8474 28.0132 58.1296 28.0132C55.5916 28.0132 53.5963 27.1746 52.1438 25.4976C50.8486 23.8804 50.2009 21.8364 50.2009 19.3657C50.2009 17.1346 50.755 15.2254 51.863 13.6382C53.2856 11.6017 55.3894 10.5835 58.1746 10.5835ZM58.3992 26.0142C60.3682 26.0142 61.7908 25.3104 62.6667 23.9028C63.5502 22.4878 63.9919 20.8631 63.9919 19.0288C63.9919 17.0897 63.4828 15.5286 62.4646 14.3457C61.4539 13.1628 60.0688 12.5713 58.3093 12.5713C56.6023 12.5713 55.2097 13.159 54.1316 14.3345C53.0535 15.5024 52.5144 17.2282 52.5144 19.5117C52.5144 21.3385 52.9749 22.8809 53.8958 24.1387C54.8241 25.389 56.3253 26.0142 58.3992 26.0142ZM77.4236 20.7695L74.9192 13.481L72.2576 20.7695H77.4236ZM73.7512 11.0327H76.2781L82.2639 27.5303H79.8157L78.1423 22.5889H71.6174L69.8318 27.5303H67.5408L73.7512 11.0327ZM85.7566 22.207C85.809 23.1429 86.0299 23.9028 86.4192 24.4868C87.1604 25.5799 88.4669 26.1265 90.3386 26.1265C91.1772 26.1265 91.9408 26.0067 92.6296 25.7671C93.9623 25.3029 94.6287 24.4718 94.6287 23.2739C94.6287 22.3755 94.3479 21.7354 93.7864 21.3535C93.2174 20.9792 92.3264 20.6535 91.1135 20.3765L88.8787 19.8711C87.4187 19.5417 86.3855 19.1785 85.7791 18.7817C84.7309 18.0929 84.2068 17.0635 84.2068 15.6934C84.2068 14.2109 84.7196 12.9943 85.7454 12.0435C86.7711 11.0926 88.2236 10.6172 90.1028 10.6172C91.8323 10.6172 93.2997 11.0365 94.5051 11.875C95.718 12.7061 96.3245 14.0387 96.3245 15.873H94.2244C94.1121 14.9896 93.8725 14.312 93.5056 13.8403C92.8243 12.9793 91.6676 12.5488 90.0354 12.5488C88.7177 12.5488 87.7706 12.8258 87.1941 13.3799C86.6176 13.9339 86.3293 14.5778 86.3293 15.3115C86.3293 16.1201 86.6663 16.7116 87.3401 17.0859C87.7818 17.3255 88.7813 17.625 90.3386 17.9844L92.6521 18.5122C93.7677 18.7668 94.6287 19.1149 95.2351 19.5566C96.2833 20.3278 96.8074 21.4471 96.8074 22.9146C96.8074 24.7414 96.141 26.0479 94.8083 26.834C93.4832 27.6201 91.9408 28.0132 90.1814 28.0132C88.13 28.0132 86.524 27.4891 85.3635 26.4409C84.203 25.4002 83.634 23.9889 83.6565 22.207H85.7566ZM100.143 11.0327H102.4V27.5303H100.143V11.0327ZM107.499 22.207C107.551 23.1429 107.772 23.9028 108.161 24.4868C108.903 25.5799 110.209 26.1265 112.081 26.1265C112.919 26.1265 113.683 26.0067 114.372 25.7671C115.705 25.3029 116.371 24.4718 116.371 23.2739C116.371 22.3755 116.09 21.7354 115.529 21.3535C114.96 20.9792 114.069 20.6535 112.856 20.3765L110.621 19.8711C109.161 19.5417 108.128 19.1785 107.521 18.7817C106.473 18.0929 105.949 17.0635 105.949 15.6934C105.949 14.2109 106.462 12.9943 107.488 12.0435C108.513 11.0926 109.966 10.6172 111.845 10.6172C113.574 10.6172 115.042 11.0365 116.247 11.875C117.46 12.7061 118.067 14.0387 118.067 15.873H115.967C115.854 14.9896 115.615 14.312 115.248 13.8403C114.566 12.9793 113.41 12.5488 111.778 12.5488C110.46 12.5488 109.513 12.8258 108.936 13.3799C108.36 13.9339 108.072 14.5778 108.072 15.3115C108.072 16.1201 108.408 16.7116 109.082 17.0859C109.524 17.3255 110.524 17.625 112.081 17.9844L114.394 18.5122C115.51 18.7668 116.371 19.1149 116.977 19.5566C118.025 20.3278 118.55 21.4471 118.55 22.9146C118.55 24.7414 117.883 26.0479 116.551 26.834C115.225 27.6201 113.683 28.0132 111.924 28.0132C109.872 28.0132 108.266 27.4891 107.106 26.4409C105.945 25.4002 105.376 23.9889 105.399 22.207H107.499ZM127.781 11.0327H130.42L138.753 24.397V11.0327H140.876V27.5303H138.371L129.915 14.1772V27.5303H127.781V11.0327ZM144.615 11.0327H156.643V13.0542H146.794V18.063H155.902V19.9722H146.794V25.5649H156.812V27.5303H144.615V11.0327ZM171.748 11.0327V12.998H166.189V27.5303H163.921V12.998H158.362V11.0327H171.748ZM174.893 11.0327L178.004 24.4531L181.732 11.0327H184.158L187.886 24.4531L190.997 11.0327H193.446L189.111 27.5303H186.763L182.956 13.8516L179.127 27.5303H176.78L172.467 11.0327H174.893ZM202.643 10.5835C205.556 10.5835 207.712 11.5194 209.112 13.3911C210.205 14.8511 210.752 16.7191 210.752 18.9951C210.752 21.4583 210.127 23.506 208.876 25.1382C207.409 27.0549 205.316 28.0132 202.598 28.0132C200.06 28.0132 198.065 27.1746 196.613 25.4976C195.317 23.8804 194.67 21.8364 194.67 19.3657C194.67 17.1346 195.224 15.2254 196.332 13.6382C197.754 11.6017 199.858 10.5835 202.643 10.5835ZM202.868 26.0142C204.837 26.0142 206.26 25.3104 207.135 23.9028C208.019 22.4878 208.461 20.8631 208.461 19.0288C208.461 17.0897 207.952 15.5286 206.933 14.3457C205.923 13.1628 204.538 12.5713 202.778 12.5713C201.071 12.5713 199.678 13.159 198.6 14.3345C197.522 15.5024 196.983 17.2282 196.983 19.5117C196.983 21.3385 197.444 22.8809 198.365 24.1387C199.293 25.389 200.794 26.0142 202.868 26.0142ZM221.095 18.5908C222.143 18.5908 222.97 18.3812 223.577 17.9619C224.191 17.5426 224.498 16.7865 224.498 15.6934C224.498 14.5179 224.071 13.7168 223.218 13.29C222.761 13.0654 222.151 12.9531 221.387 12.9531H215.929V18.5908H221.095ZM213.694 11.0327H221.331C222.589 11.0327 223.626 11.2161 224.442 11.583C225.991 12.2868 226.766 13.5858 226.766 15.48C226.766 16.4683 226.56 17.2769 226.149 17.9058C225.744 18.5347 225.175 19.04 224.442 19.4219C225.086 19.6839 225.568 20.0283 225.89 20.4551C226.22 20.8818 226.403 21.5744 226.441 22.5327L226.519 24.7451C226.542 25.374 226.594 25.842 226.677 26.1489C226.811 26.673 227.051 27.0099 227.395 27.1597V27.5303H224.655C224.58 27.388 224.52 27.2046 224.475 26.98C224.43 26.7554 224.393 26.3211 224.363 25.6772L224.228 22.9258C224.176 21.8477 223.775 21.1252 223.027 20.7583C222.6 20.5562 221.93 20.4551 221.016 20.4551H215.929V27.5303H213.694V11.0327ZM230.046 11.0327H232.224V19.0737L240.265 11.0327H243.354L236.492 17.6812L243.545 27.5303H240.636L234.864 19.2534L232.224 21.7803V27.5303H230.046V11.0327Z" fill="white"/>
<defs>
<clipPath id="clip0_13_3615">
<rect width="38" height="38" fill="white" transform="translate(0.968506 0.530273)"/>
</clipPath>
</defs>
</svg>
