<svg width="24" height="24" viewBox="0 0 24 24" fill="none" xmlns="http://www.w3.org/2000/svg">
<path d="M23 12C23 5.92487 18.0751 1 12 1C5.92487 1 1 5.92487 1 12C1 18.0751 5.92487 23 12 23C18.0751 23 23 18.0751 23 12Z" fill="white"/>
<path d="M5.94422 11.7576C9.14307 10.3346 11.2761 9.3965 12.3434 8.94321C15.3907 7.6491 16.0239 7.42429 16.4367 7.41682C16.5274 7.41526 16.7304 7.43822 16.8619 7.54712C16.9729 7.63911 17.0034 7.76337 17.018 7.85054C17.0326 7.93776 17.0508 8.1364 17.0363 8.2916C16.8712 10.0631 16.1567 14.3623 15.7932 16.3464C15.6393 17.186 15.3365 17.4675 15.0433 17.4951C14.4061 17.5549 13.9222 17.0651 13.305 16.652C12.3392 16.0057 11.7937 15.6032 10.8562 14.9725C9.77282 14.2436 10.4751 13.843 11.0925 13.1882C11.2541 13.0169 14.0617 10.4094 14.1161 10.1729C14.1229 10.1433 14.1292 10.033 14.065 9.97482C14.0009 9.91662 13.9062 9.93651 13.8378 9.95232C13.741 9.97478 12.1981 11.016 9.20935 13.0759C8.77141 13.3829 8.37477 13.5325 8.01937 13.5247C7.62759 13.516 6.87395 13.2985 6.31369 13.1126C5.62651 12.8845 5.08033 12.7639 5.12789 12.3766C5.15266 12.1748 5.42476 11.9685 5.94422 11.7576Z" fill="#020202"/>
</svg>
