<svg width="60" height="60" viewBox="0 0 60 60" fill="none" xmlns="http://www.w3.org/2000/svg">
<rect width="60" height="60" rx="30" fill="url(#paint0_linear_13_169)"/>
<path d="M30 46.25C38.9746 46.25 46.25 38.9746 46.25 30C46.25 21.0254 38.9746 13.75 30 13.75C21.0254 13.75 13.75 21.0254 13.75 30C13.75 38.9746 21.0254 46.25 30 46.25Z" stroke="white" stroke-linecap="round" stroke-linejoin="round"/>
<path d="M25.1126 36.1334C25.5668 36.7067 26.1521 37.1626 26.8191 37.4628C27.4862 37.7629 28.2155 37.8986 28.9459 37.8584H31.2459C32.2626 37.8584 33.2376 37.4545 33.9565 36.7356C34.6754 36.0167 35.0792 35.0417 35.0792 34.025C35.0792 33.0084 34.6754 32.0333 33.9565 31.3144C33.2376 30.5956 32.2626 30.1917 31.2459 30.1917H28.7542C27.7376 30.1917 26.7625 29.7878 26.0437 29.0689C25.3248 28.35 24.9209 27.375 24.9209 26.3584C24.9209 25.3417 25.3248 24.3667 26.0437 23.6478C26.7625 22.9289 27.7376 22.525 28.7542 22.525H31.0542C32.7792 22.525 33.9292 22.9084 34.8876 24.25M29.9042 20.4167V39.5834" stroke="white" stroke-linecap="round" stroke-linejoin="round"/>
<defs>
<linearGradient id="paint0_linear_13_169" x1="30" y1="0" x2="30" y2="60" gradientUnits="userSpaceOnUse">
<stop stop-color="#5200FF"/>
<stop offset="1" stop-color="#5200FF" stop-opacity="0.1"/>
</linearGradient>
</defs>
</svg>
