<svg width="202" height="32" viewBox="0 0 202 32" fill="none" xmlns="http://www.w3.org/2000/svg">
<path d="M14.4009 26.7419C12.0653 29.0775 4.94506 27.7396 4.94506 27.7396C4.94506 27.7396 3.60717 20.6194 5.94281 18.2837C8.27846 15.9481 12.0653 15.9481 14.4009 18.2838C16.7366 20.6194 16.7366 24.4062 14.4009 26.7419Z" fill="white"/>
<path fill-rule="evenodd" clip-rule="evenodd" d="M15.3778 0.132812C15.3778 0.132812 12.2426 6.66422 13.8941 9.52475L23.0588 25.1731C24.693 28.0035 28.3122 28.9732 31.1425 27.3391C33.9729 25.705 34.9426 22.0858 33.3085 19.2554L24.2532 3.54393C22.6017 0.683404 15.3778 0.132812 15.3778 0.132812Z" fill="white"/>
<path fill-rule="evenodd" clip-rule="evenodd" d="M33.3842 0.132812C33.3842 0.132812 30.249 6.66422 31.9005 9.52475L41.0652 25.1731C42.6993 28.0035 46.3185 28.9732 49.1489 27.3391C51.9792 25.705 52.949 22.0858 51.3148 19.2554L42.2595 3.54393C40.6081 0.683404 33.3842 0.132812 33.3842 0.132812Z" fill="white"/>
<path d="M196.537 23.8489C195.555 23.8489 194.625 23.7129 193.749 23.4408C192.872 23.1537 192.185 22.7986 191.686 22.3755L192.411 21.1061C192.895 21.4688 193.515 21.7861 194.27 22.0581C195.026 22.315 195.819 22.4435 196.65 22.4435C197.784 22.4435 198.6 22.2697 199.098 21.9221C199.597 21.5594 199.846 21.0834 199.846 20.4941C199.846 20.0558 199.703 19.7158 199.416 19.474C199.144 19.2171 198.781 19.0282 198.328 18.9073C197.874 18.7713 197.368 18.658 196.809 18.5673C196.25 18.4766 195.691 18.3709 195.132 18.25C194.587 18.1291 194.089 17.9553 193.635 17.7286C193.182 17.4868 192.812 17.1619 192.525 16.7539C192.253 16.3459 192.117 15.8019 192.117 15.1218C192.117 14.472 192.298 13.8902 192.661 13.3764C193.023 12.8626 193.552 12.4622 194.247 12.175C194.958 11.8728 195.819 11.7217 196.832 11.7217C197.602 11.7217 198.373 11.8275 199.144 12.039C199.914 12.2355 200.549 12.4999 201.048 12.8324L200.345 14.1244C199.816 13.7618 199.249 13.5049 198.645 13.3537C198.041 13.1875 197.436 13.1044 196.832 13.1044C195.759 13.1044 194.965 13.2933 194.451 13.6711C193.953 14.0338 193.703 14.5022 193.703 15.0765C193.703 15.5298 193.839 15.885 194.111 16.1419C194.399 16.3988 194.769 16.6028 195.222 16.7539C195.691 16.8899 196.197 17.0032 196.741 17.0939C197.3 17.1846 197.852 17.2979 198.396 17.4339C198.955 17.5548 199.461 17.7286 199.914 17.9553C200.383 18.1668 200.753 18.4766 201.025 18.8847C201.312 19.2776 201.456 19.7989 201.456 20.4487C201.456 21.1439 201.259 21.7483 200.866 22.2621C200.489 22.7608 199.929 23.1537 199.189 23.4408C198.464 23.7129 197.58 23.8489 196.537 23.8489Z" fill="white"/>
<path d="M184.121 23.8489C183.093 23.8489 182.164 23.6146 181.333 23.1462C180.502 22.6626 179.837 21.975 179.338 21.0834C178.855 20.1767 178.613 19.0736 178.613 17.7739C178.613 16.4743 178.855 15.3787 179.338 14.4871C179.822 13.5804 180.479 12.8928 181.31 12.4244C182.141 11.9559 183.078 11.7217 184.121 11.7217C185.254 11.7217 186.267 11.9786 187.158 12.4924C188.065 12.9911 188.775 13.7013 189.289 14.6231C189.803 15.5298 190.06 16.5801 190.06 17.7739C190.06 18.9829 189.803 20.0407 189.289 20.9474C188.775 21.8541 188.065 22.5644 187.158 23.0782C186.267 23.592 185.254 23.8489 184.121 23.8489ZM177.978 28.133V11.835H179.519V15.4165L179.361 17.7966L179.587 20.1994V28.133H177.978ZM184.008 22.4208C184.854 22.4208 185.609 22.2319 186.274 21.8541C186.939 21.4612 187.468 20.9172 187.861 20.222C188.254 19.5118 188.45 18.6958 188.45 17.7739C188.45 16.8521 188.254 16.0436 187.861 15.3485C187.468 14.6534 186.939 14.1093 186.274 13.7164C185.609 13.3235 184.854 13.1271 184.008 13.1271C183.161 13.1271 182.398 13.3235 181.718 13.7164C181.053 14.1093 180.524 14.6534 180.131 15.3485C179.754 16.0436 179.565 16.8521 179.565 17.7739C179.565 18.6958 179.754 19.5118 180.131 20.222C180.524 20.9172 181.053 21.4612 181.718 21.8541C182.398 22.2319 183.161 22.4208 184.008 22.4208Z" fill="white"/>
<path d="M172.065 23.7355V21.1061L171.997 20.6754V16.2779C171.997 15.2654 171.71 14.4871 171.136 13.9431C170.576 13.3991 169.738 13.1271 168.619 13.1271C167.849 13.1271 167.116 13.2555 166.421 13.5124C165.726 13.7693 165.136 14.1093 164.653 14.5325L163.927 13.3311C164.532 12.8173 165.257 12.4244 166.103 12.1524C166.95 11.8652 167.841 11.7217 168.778 11.7217C170.319 11.7217 171.506 12.107 172.337 12.8777C173.183 13.6333 173.606 14.7894 173.606 16.3459V23.7355H172.065ZM167.962 23.8489C167.07 23.8489 166.292 23.7053 165.627 23.4182C164.977 23.1159 164.479 22.7079 164.131 22.1941C163.784 21.6652 163.61 21.0607 163.61 20.3807C163.61 19.7611 163.753 19.202 164.041 18.7033C164.343 18.1895 164.826 17.7815 165.491 17.4793C166.171 17.1619 167.078 17.0032 168.211 17.0032H172.314V18.2046H168.257C167.108 18.2046 166.307 18.4086 165.854 18.8166C165.416 19.2247 165.197 19.7309 165.197 20.3354C165.197 21.0154 165.461 21.5594 165.99 21.9675C166.519 22.3755 167.259 22.5795 168.211 22.5795C169.118 22.5795 169.896 22.3755 170.546 21.9675C171.211 21.5443 171.695 20.9399 171.997 20.154L172.36 21.2648C172.057 22.0506 171.528 22.6777 170.773 23.1462C170.032 23.6146 169.095 23.8489 167.962 23.8489Z" fill="white"/>
<path d="M155.438 11.7217C156.405 11.7217 157.243 11.9106 157.954 12.2884C158.679 12.6511 159.238 13.2102 159.631 13.9658C160.039 14.7214 160.243 15.6734 160.243 16.8219V23.7355H158.634V16.9806C158.634 15.7263 158.331 14.7818 157.727 14.1471C157.138 13.4973 156.299 13.1724 155.211 13.1724C154.395 13.1724 153.685 13.3462 153.08 13.6938C152.491 14.0262 152.03 14.5174 151.697 15.1672C151.38 15.8019 151.221 16.5726 151.221 17.4793V23.7355H149.612V16.9806C149.612 15.7263 149.31 14.7818 148.705 14.1471C148.101 13.4973 147.255 13.1724 146.167 13.1724C145.366 13.1724 144.663 13.3462 144.058 13.6938C143.454 14.0262 142.986 14.5174 142.653 15.1672C142.336 15.8019 142.177 16.5726 142.177 17.4793V23.7355H140.568V11.835H142.109V15.0538L141.86 14.4871C142.222 13.6258 142.804 12.9533 143.605 12.4697C144.421 11.971 145.381 11.7217 146.484 11.7217C147.647 11.7217 148.637 12.0164 149.453 12.6057C150.269 13.18 150.798 14.0489 151.04 15.2125L150.405 14.9632C150.753 13.996 151.365 13.2177 152.241 12.6284C153.133 12.0239 154.198 11.7217 155.438 11.7217Z" fill="white"/>
<path d="M131.942 23.8489C130.703 23.8489 129.615 23.592 128.678 23.0782C127.741 22.5493 127.008 21.8314 126.479 20.9247C125.95 20.0029 125.686 18.9527 125.686 17.7739C125.686 16.5952 125.935 15.5525 126.434 14.6458C126.947 13.7391 127.643 13.0288 128.519 12.515C129.411 11.9861 130.408 11.7217 131.511 11.7217C132.629 11.7217 133.619 11.9786 134.481 12.4924C135.357 12.9911 136.045 13.7013 136.543 14.6231C137.042 15.5298 137.291 16.5801 137.291 17.7739C137.291 17.8495 137.284 17.9326 137.269 18.0233C137.269 18.0988 137.269 18.182 137.269 18.2726H126.91V17.0712H136.407L135.773 17.5473C135.773 16.6859 135.584 15.9227 135.206 15.2578C134.843 14.5778 134.345 14.0489 133.71 13.6711C133.075 13.2933 132.342 13.1044 131.511 13.1044C130.695 13.1044 129.962 13.2933 129.312 13.6711C128.663 14.0489 128.156 14.5778 127.794 15.2578C127.431 15.9379 127.25 16.7161 127.25 17.5926V17.8419C127.25 18.7486 127.446 19.5496 127.839 20.2447C128.247 20.9247 128.806 21.4612 129.516 21.8541C130.242 22.2319 131.065 22.4208 131.987 22.4208C132.713 22.4208 133.385 22.2924 134.005 22.0355C134.639 21.7786 135.183 21.3856 135.637 20.8567L136.543 21.8994C136.014 22.5341 135.35 23.0177 134.549 23.3502C133.763 23.6826 132.894 23.8489 131.942 23.8489Z" fill="white"/>
<path d="M120.8 23.7354V6.91602H122.409V23.7354H120.8Z" fill="white"/>
<path d="M111.58 23.8487C110.537 23.8487 109.6 23.6145 108.769 23.146C107.938 22.6625 107.28 21.9673 106.797 21.0606C106.313 20.1539 106.071 19.0583 106.071 17.7738C106.071 16.4742 106.313 15.3786 106.797 14.487C107.296 13.5803 107.96 12.8927 108.792 12.4243C109.623 11.9558 110.552 11.7216 111.58 11.7216C112.713 11.7216 113.726 11.9785 114.617 12.4923C115.524 12.9909 116.234 13.6936 116.748 14.6003C117.262 15.507 117.519 16.5649 117.519 17.7738C117.519 18.9676 117.262 20.0255 116.748 20.9473C116.234 21.854 115.524 22.5642 114.617 23.078C113.726 23.5918 112.713 23.8487 111.58 23.8487ZM105.437 23.7354V6.91602H107.046V15.3484L106.819 17.7511L106.978 20.1539V23.7354H105.437ZM111.466 22.4207C112.313 22.4207 113.068 22.2318 113.733 21.854C114.398 21.4611 114.927 20.9171 115.32 20.2219C115.713 19.5117 115.909 18.6956 115.909 17.7738C115.909 16.8369 115.713 16.0208 115.32 15.3257C114.927 14.6306 114.398 14.0941 113.733 13.7163C113.068 13.3234 112.313 13.1269 111.466 13.1269C110.62 13.1269 109.857 13.3234 109.177 13.7163C108.512 14.0941 107.983 14.6306 107.59 15.3257C107.212 16.0208 107.024 16.8369 107.024 17.7738C107.024 18.6956 107.212 19.5117 107.59 20.2219C107.983 20.9171 108.512 21.4611 109.177 21.854C109.857 22.2318 110.62 22.4207 111.466 22.4207Z" fill="white"/>
<path d="M96.2171 23.8487C95.1744 23.8487 94.2375 23.6145 93.4064 23.146C92.5752 22.6625 91.9179 21.9673 91.4343 21.0606C90.9507 20.1539 90.7089 19.0583 90.7089 17.7738C90.7089 16.4742 90.9507 15.3786 91.4343 14.487C91.933 13.5803 92.5979 12.8927 93.429 12.4243C94.2602 11.9558 95.1895 11.7216 96.2171 11.7216C97.3505 11.7216 98.363 11.9785 99.2546 12.4923C100.161 12.9909 100.872 13.6936 101.385 14.6003C101.899 15.507 102.156 16.5649 102.156 17.7738C102.156 18.9676 101.899 20.0255 101.385 20.9473C100.872 21.854 100.161 22.5642 99.2546 23.078C98.363 23.5918 97.3505 23.8487 96.2171 23.8487ZM90.0742 23.7354V6.91602H91.6836V15.3484L91.4569 17.7511L91.6156 20.1539V23.7354H90.0742ZM96.1038 22.4207C96.9501 22.4207 97.7057 22.2318 98.3706 21.854C99.0355 21.4611 99.5644 20.9171 99.9573 20.2219C100.35 19.5117 100.547 18.6956 100.547 17.7738C100.547 16.8369 100.35 16.0208 99.9573 15.3257C99.5644 14.6306 99.0355 14.0941 98.3706 13.7163C97.7057 13.3234 96.9501 13.1269 96.1038 13.1269C95.2576 13.1269 94.4944 13.3234 93.8144 13.7163C93.1495 14.0941 92.6206 14.6306 92.2276 15.3257C91.8499 16.0208 91.661 16.8369 91.661 17.7738C91.661 18.6956 91.8499 19.5117 92.2276 20.2219C92.6206 20.9171 93.1495 21.4611 93.8144 21.854C94.4944 22.2318 95.2576 22.4207 96.1038 22.4207Z" fill="white"/>
<path d="M79.7637 23.8488C78.7512 23.8488 77.8671 23.6599 77.1115 23.2821C76.356 22.9043 75.7666 22.3376 75.3435 21.582C74.9355 20.8265 74.7314 19.882 74.7314 18.7486V11.835H76.3408V18.5672C76.3408 19.8366 76.6506 20.7962 77.2702 21.446C77.9049 22.0807 78.789 22.3981 79.9223 22.3981C80.7535 22.3981 81.4713 22.2318 82.0758 21.8994C82.6953 21.5518 83.1638 21.0531 83.4812 20.4033C83.8136 19.7535 83.9798 18.9753 83.9798 18.0686V11.835H85.5892V23.7355H84.0478V20.4713L84.2972 21.0607C83.9194 21.9372 83.33 22.6248 82.5291 23.1234C81.7433 23.607 80.8215 23.8488 79.7637 23.8488Z" fill="white"/>
<path d="M65.6249 23.8487C64.5822 23.8487 63.6452 23.6145 62.8141 23.146C61.9829 22.6625 61.3256 21.9673 60.842 21.0606C60.3584 20.1539 60.1166 19.0583 60.1166 17.7738C60.1166 16.4742 60.3584 15.3786 60.842 14.487C61.3407 13.5803 62.0056 12.8927 62.8367 12.4243C63.6679 11.9558 64.5973 11.7216 65.6249 11.7216C66.7582 11.7216 67.7707 11.9785 68.6623 12.4923C69.569 12.9909 70.2793 13.6936 70.7931 14.6003C71.3069 15.507 71.5638 16.5649 71.5638 17.7738C71.5638 18.9676 71.3069 20.0255 70.7931 20.9473C70.2793 21.854 69.569 22.5642 68.6623 23.078C67.7707 23.5918 66.7582 23.8487 65.6249 23.8487ZM59.4819 23.7354V6.91602H61.0913V15.3484L60.8647 17.7511L61.0233 20.1539V23.7354H59.4819ZM65.5115 22.4207C66.3578 22.4207 67.1134 22.2318 67.7783 21.854C68.4432 21.4611 68.9721 20.9171 69.365 20.2219C69.7579 19.5117 69.9544 18.6956 69.9544 17.7738C69.9544 16.8369 69.7579 16.0208 69.365 15.3257C68.9721 14.6306 68.4432 14.0941 67.7783 13.7163C67.1134 13.3234 66.3578 13.1269 65.5115 13.1269C64.6653 13.1269 63.9021 13.3234 63.2221 13.7163C62.5572 14.0941 62.0283 14.6306 61.6354 15.3257C61.2576 16.0208 61.0687 16.8369 61.0687 17.7738C61.0687 18.6956 61.2576 19.5117 61.6354 20.2219C62.0283 20.9171 62.5572 21.4611 63.2221 21.854C63.9021 22.2318 64.6653 22.4207 65.5115 22.4207Z" fill="white"/>
</svg>
