<svg width="200" height="30" viewBox="0 0 200 30" fill="none" xmlns="http://www.w3.org/2000/svg">
<path d="M191.463 14.5997H189.92V3.80176H191.463L197.954 12.1751V3.80176H199.498V14.5997H197.954L191.463 6.22641V14.5997Z" fill="white"/>
<path d="M187.141 3.80176V14.5997H185.597V3.80176H187.141Z" fill="white"/>
<path d="M179.581 3.80176L183.745 14.5997H182.201L181.245 12.1149H176.373L175.416 14.5997H173.873L178.037 3.80176H179.581ZM176.96 10.5712H180.65L178.812 5.81226L176.96 10.5712Z" fill="white"/>
<path d="M172.021 3.80176V14.5997H170.477V9.97634H164.295V14.5997H162.751V3.80176H164.295V8.43269H170.477V3.80176H172.021Z" fill="white"/>
<path d="M151.336 5.3454C151.336 5.13456 151.376 4.93627 151.456 4.75053C151.536 4.55978 151.647 4.39663 151.787 4.26109C151.928 4.12053 152.091 4.01009 152.277 3.92977C152.468 3.84443 152.668 3.80176 152.879 3.80176H158.738C158.948 3.80176 159.147 3.84443 159.333 3.92977C159.523 4.01009 159.689 4.12053 159.83 4.26109C159.97 4.39663 160.081 4.55978 160.161 4.75053C160.241 4.93627 160.281 5.13456 160.281 5.3454V6.73845H158.738V5.3454H152.879V13.0561H158.738V11.6706H160.281V13.0561C160.281 13.2669 160.241 13.4677 160.161 13.6585C160.081 13.8442 159.97 14.0074 159.83 14.1479C159.689 14.2885 159.523 14.3989 159.333 14.4793C159.147 14.5596 158.948 14.5997 158.738 14.5997H152.879C152.668 14.5997 152.468 14.5596 152.277 14.4793C152.091 14.3989 151.928 14.2885 151.787 14.1479C151.647 14.0074 151.536 13.8442 151.456 13.6585C151.376 13.4677 151.336 13.2669 151.336 13.0561V5.3454Z" fill="white"/>
<path d="M135.907 14.5997H134.363V3.80176H135.907L142.398 12.1751V3.80176H143.941V14.5997H142.398L135.907 6.22641V14.5997Z" fill="white"/>
<path d="M131.585 13.0561C131.585 13.2669 131.545 13.4677 131.464 13.6585C131.384 13.8442 131.273 14.0074 131.133 14.1479C130.992 14.2885 130.827 14.3989 130.636 14.4793C130.45 14.5596 130.252 14.5997 130.041 14.5997H123.874C123.663 14.5997 123.462 14.5596 123.272 14.4793C123.086 14.3989 122.923 14.2885 122.782 14.1479C122.642 14.0074 122.531 13.8442 122.451 13.6585C122.37 13.4677 122.33 13.2669 122.33 13.0561V5.3454C122.33 5.13456 122.37 4.93627 122.451 4.75053C122.531 4.55978 122.642 4.39663 122.782 4.26109C122.923 4.12053 123.086 4.01009 123.272 3.92977C123.462 3.84443 123.663 3.80176 123.874 3.80176H130.041C130.252 3.80176 130.45 3.84443 130.636 3.92977C130.827 4.01009 130.992 4.12053 131.133 4.26109C131.273 4.39663 131.384 4.55978 131.464 4.75053C131.545 4.93627 131.585 5.13456 131.585 5.3454V13.0561ZM123.874 5.3454V13.0561H130.041V5.3454H123.874Z" fill="white"/>
<path d="M107.218 3.80176H115.855V5.3454H112.308V14.5997H110.764V5.3454H107.218V3.80176Z" fill="white"/>
<path d="M105.365 13.0561C105.365 13.2669 105.325 13.4677 105.245 13.6585C105.165 13.8442 105.054 14.0074 104.914 14.1479C104.773 14.2885 104.607 14.3989 104.417 14.4793C104.231 14.5596 104.033 14.5997 103.822 14.5997H97.6547C97.4439 14.5997 97.2431 14.5596 97.0523 14.4793C96.8666 14.3989 96.7034 14.2885 96.5629 14.1479C96.4223 14.0074 96.3119 13.8442 96.2316 13.6585C96.1512 13.4677 96.1111 13.2669 96.1111 13.0561V5.3454C96.1111 5.13456 96.1512 4.93627 96.2316 4.75053C96.3119 4.55978 96.4223 4.39663 96.5629 4.26109C96.7034 4.12053 96.8666 4.01009 97.0523 3.92977C97.2431 3.84443 97.4439 3.80176 97.6547 3.80176H103.822C104.033 3.80176 104.231 3.84443 104.417 3.92977C104.607 4.01009 104.773 4.12053 104.914 4.26109C105.054 4.39663 105.165 4.55978 105.245 4.75053C105.325 4.93627 105.365 5.13456 105.365 5.3454V13.0561ZM97.6547 5.3454V13.0561H103.822V5.3454H97.6547Z" fill="white"/>
<path d="M85.4182 14.5997V3.80176H91.3292C93.0762 3.80176 93.9497 4.67774 93.9497 6.42972V7.96583C93.9497 9.71781 93.0762 10.5938 91.3292 10.5938H86.9619V14.5997H85.4182ZM86.9619 9.05015H91.2464C91.6581 9.05015 91.9542 8.95979 92.135 8.77907C92.3157 8.59835 92.406 8.30217 92.406 7.89053V6.50502C92.406 6.09338 92.3157 5.7972 92.135 5.61648C91.9542 5.43576 91.6581 5.3454 91.2464 5.3454H86.9619V9.05015Z" fill="white"/>
<path d="M75.8473 9.97634C75.6365 9.97634 75.4357 9.93618 75.2449 9.85586C75.0592 9.77052 74.896 9.66008 74.7555 9.52454C74.6149 9.38398 74.5045 9.22083 74.4242 9.03509C74.3438 8.84433 74.3037 8.64353 74.3037 8.43269V5.3454C74.3037 5.13456 74.3438 4.93627 74.4242 4.75053C74.5045 4.55978 74.6149 4.39663 74.7555 4.26109C74.896 4.12053 75.0592 4.01009 75.2449 3.92977C75.4357 3.84443 75.6365 3.80176 75.8473 3.80176H81.0882C81.299 3.80176 81.4973 3.84443 81.6831 3.92977C81.8738 4.01009 82.0395 4.12053 82.18 4.26109C82.3206 4.39663 82.431 4.55978 82.5113 4.75053C82.5917 4.93627 82.6318 5.13456 82.6318 5.3454V6.73845H81.0882V5.3454H75.8473V8.43269H81.0882C81.299 8.43269 81.4973 8.47285 81.6831 8.55317C81.8738 8.63349 82.0395 8.74393 82.18 8.88449C82.3206 9.02505 82.431 9.19071 82.5113 9.38147C82.5917 9.56721 82.6318 9.7655 82.6318 9.97634V13.0561C82.6318 13.2669 82.5917 13.4677 82.5113 13.6585C82.431 13.8442 82.3206 14.0074 82.18 14.1479C82.0395 14.2885 81.8738 14.3989 81.6831 14.4793C81.4973 14.5596 81.299 14.5997 81.0882 14.5997H75.6967C75.4859 14.5997 75.2851 14.5596 75.0943 14.4793C74.9086 14.3989 74.7454 14.2885 74.6049 14.1479C74.4643 14.0074 74.3539 13.8442 74.2736 13.6585C74.1932 13.4677 74.1531 13.2669 74.1531 13.0561V11.6706H75.6967V13.0561H81.0882V9.97634H75.8473Z" fill="white"/>
<path d="M152.298 20.8067C152.246 20.782 152.183 20.7544 152.108 20.7241C152.037 20.6911 151.955 20.6622 151.865 20.6374C151.774 20.6099 151.673 20.5878 151.563 20.5713C151.456 20.552 151.34 20.5424 151.216 20.5424C151.048 20.5424 150.884 20.5506 150.724 20.5672C150.565 20.5837 150.423 20.614 150.299 20.658C150.175 20.7021 150.075 20.7613 149.997 20.8357C149.923 20.91 149.886 21.0064 149.886 21.1248C149.886 21.224 149.923 21.3093 149.997 21.3809C150.072 21.4498 150.168 21.5104 150.287 21.5627C150.408 21.6122 150.544 21.6563 150.696 21.6949C150.847 21.7307 151 21.7651 151.154 21.7981C151.308 21.8312 151.457 21.8642 151.6 21.8973C151.743 21.9276 151.867 21.962 151.972 22.0005C152.093 22.0473 152.206 22.1066 152.311 22.1782C152.418 22.2498 152.512 22.3337 152.592 22.4301C152.671 22.5238 152.733 22.6284 152.777 22.7441C152.824 22.857 152.848 22.9795 152.848 23.1117C152.848 23.2907 152.813 23.4518 152.744 23.595C152.676 23.7354 152.582 23.8607 152.463 23.9709C152.348 24.0783 152.213 24.1719 152.059 24.2518C151.904 24.3289 151.741 24.3936 151.567 24.4459C151.396 24.4955 151.222 24.5313 151.043 24.5533C150.866 24.5781 150.697 24.5905 150.534 24.5905C150.441 24.5905 150.324 24.5809 150.183 24.5616C150.046 24.5451 149.904 24.5217 149.758 24.4914C149.615 24.4583 149.478 24.4198 149.349 24.3757C149.219 24.3316 149.119 24.2848 149.047 24.2353L149.32 23.6487C149.386 23.6817 149.473 23.7148 149.58 23.7478C149.688 23.7809 149.801 23.8112 149.919 23.8387C150.037 23.8662 150.152 23.8883 150.262 23.9048C150.375 23.9213 150.468 23.9296 150.543 23.9296C150.628 23.9296 150.723 23.9254 150.828 23.9172C150.935 23.9062 151.044 23.8897 151.154 23.8676C151.267 23.8428 151.376 23.8112 151.48 23.7726C151.588 23.7313 151.683 23.6804 151.765 23.6198C151.848 23.5592 151.914 23.4876 151.964 23.405C152.016 23.3224 152.042 23.226 152.042 23.1158C152.042 23.0084 152.006 22.9176 151.935 22.8432C151.863 22.7688 151.768 22.7055 151.65 22.6532C151.531 22.6009 151.398 22.5568 151.249 22.521C151.103 22.4824 150.953 22.4466 150.799 22.4136C150.645 22.3806 150.496 22.3475 150.353 22.3145C150.209 22.2787 150.084 22.2346 149.977 22.1823C149.82 22.1079 149.689 22.0281 149.584 21.9427C149.482 21.8546 149.4 21.7623 149.337 21.6659C149.276 21.5696 149.233 21.469 149.208 21.3644C149.184 21.2598 149.171 21.1524 149.171 21.0422C149.171 20.8467 149.226 20.6773 149.337 20.5341C149.449 20.3909 149.6 20.2739 149.787 20.183C149.974 20.0894 150.189 20.0205 150.431 19.9765C150.673 19.9297 150.927 19.9062 151.191 19.9062C151.334 19.9062 151.473 19.9145 151.608 19.931C151.746 19.9476 151.874 19.9696 151.993 19.9971C152.114 20.0247 152.221 20.0563 152.315 20.0921C152.408 20.1252 152.483 20.1596 152.538 20.1954L152.298 20.8067Z" fill="white"/>
<path d="M145.31 22.9668C145.31 23.1485 145.32 23.3014 145.339 23.4253C145.361 23.5465 145.392 23.6456 145.43 23.7227C145.471 23.7971 145.521 23.8508 145.579 23.8838C145.639 23.9141 145.708 23.9292 145.785 23.9292C145.915 23.9292 146.043 23.9141 146.17 23.8838C146.296 23.8535 146.415 23.8191 146.525 23.7805C146.635 23.7392 146.733 23.6993 146.818 23.6607C146.903 23.6194 146.969 23.5891 147.016 23.5699L147.301 24.0697C147.277 24.0917 147.216 24.1316 147.12 24.1895C147.026 24.2446 146.906 24.3024 146.76 24.363C146.617 24.4235 146.455 24.4759 146.273 24.5199C146.091 24.5667 145.901 24.5902 145.703 24.5902C145.455 24.5902 145.255 24.5447 145.104 24.4538C144.955 24.363 144.841 24.239 144.761 24.0821C144.681 23.9251 144.629 23.7434 144.604 23.5368C144.579 23.3275 144.567 23.1045 144.567 22.8676V20.637H143.365V19.9761H144.567V19.1128L145.29 18.6543V19.9761H147.289L147.206 20.637H145.31V22.9668Z" fill="white"/>
<path d="M139.194 24.5199H138.45V18.7369L138.368 17.9107L139.194 17.8281V20.5957L139.561 20.1207C139.669 20.0601 139.823 20.0092 140.024 19.9678C140.225 19.9265 140.484 19.9059 140.801 19.9059C141.216 19.9059 141.533 20.0436 141.751 20.319C141.971 20.5916 142.081 20.9868 142.081 21.5045V24.5199H141.296V21.5912C141.296 21.4067 141.28 21.2497 141.247 21.1203C141.217 20.9909 141.172 20.8849 141.115 20.8023C141.057 20.7196 140.985 20.6604 140.9 20.6246C140.814 20.5861 140.718 20.5668 140.611 20.5668C140.445 20.5668 140.287 20.5833 140.136 20.6164C139.987 20.6494 139.851 20.6921 139.727 20.7444C139.603 20.794 139.494 20.8491 139.4 20.9096C139.309 20.9702 139.241 21.0267 139.194 21.079V24.5199Z" fill="white"/>
<path d="M135.964 23.9623L135.605 24.4167C135.58 24.4332 135.544 24.4511 135.498 24.4704C135.453 24.4897 135.398 24.5076 135.332 24.5241C135.266 24.5434 135.189 24.5585 135.101 24.5695C135.013 24.5833 134.915 24.5902 134.808 24.5902C134.64 24.5902 134.474 24.5627 134.312 24.5076C134.15 24.4525 133.994 24.374 133.845 24.2721C133.699 24.1702 133.564 24.0491 133.44 23.9086C133.317 23.7654 133.208 23.6085 133.114 23.4377C133.023 23.2642 132.952 23.0797 132.899 22.8842C132.85 22.6859 132.825 22.4808 132.825 22.2687C132.825 21.9465 132.877 21.6422 132.982 21.3558C133.087 21.0694 133.234 20.8188 133.424 20.604C133.614 20.3892 133.842 20.2199 134.11 20.096C134.377 19.9693 134.673 19.9059 134.998 19.9059C135.1 19.9059 135.199 19.9101 135.295 19.9183C135.394 19.9266 135.487 19.9459 135.572 19.9762L135.964 20.5627V19.8936L136.708 19.9762V24.71C136.708 24.9799 136.664 25.2332 136.576 25.47C136.488 25.7069 136.359 25.912 136.191 26.0855C136.024 26.2618 135.817 26.4008 135.572 26.5027C135.327 26.6046 135.047 26.6556 134.733 26.6556C134.516 26.6556 134.324 26.628 134.159 26.5729C133.997 26.5179 133.858 26.4573 133.742 26.3912C133.676 26.3526 133.614 26.3113 133.556 26.2673C133.498 26.2232 133.446 26.175 133.399 26.1227L133.804 25.6683C133.842 25.6986 133.884 25.7275 133.928 25.7551C133.975 25.7826 134.023 25.8088 134.072 25.8335C134.158 25.8749 134.257 25.912 134.37 25.9451C134.483 25.9781 134.605 25.9946 134.737 25.9946C134.908 25.9946 135.068 25.9588 135.217 25.8872C135.365 25.8184 135.495 25.7234 135.605 25.6022C135.718 25.4811 135.806 25.3379 135.869 25.1726C135.933 25.0102 135.964 24.8353 135.964 24.648V23.9623ZM135.964 21.0749C135.893 20.9841 135.806 20.9001 135.704 20.823C135.619 20.7596 135.515 20.7018 135.394 20.6495C135.273 20.5944 135.134 20.5669 134.977 20.5669C134.812 20.5669 134.663 20.593 134.531 20.6453C134.399 20.6977 134.282 20.7679 134.18 20.856C134.081 20.9441 133.994 21.0474 133.92 21.1658C133.848 21.2815 133.789 21.4054 133.742 21.5376C133.698 21.667 133.665 21.7992 133.643 21.9341C133.621 22.0663 133.61 22.1944 133.61 22.3183C133.61 22.5524 133.646 22.7685 133.717 22.9668C133.792 23.1623 133.888 23.3317 134.006 23.4749C134.125 23.6153 134.26 23.7255 134.411 23.8054C134.563 23.8852 134.717 23.9251 134.874 23.9251C135.014 23.9251 135.14 23.91 135.25 23.8797C135.36 23.8494 135.459 23.8095 135.547 23.7599C135.635 23.7076 135.712 23.6498 135.778 23.5864C135.847 23.5203 135.909 23.4529 135.964 23.384V21.0749Z" fill="white"/>
<path d="M129.769 22.8969C129.769 23.0401 129.777 23.1723 129.794 23.2935C129.813 23.4147 129.843 23.5193 129.884 23.6074C129.926 23.6955 129.981 23.7644 130.05 23.814C130.118 23.8635 130.204 23.8883 130.306 23.8883C130.441 23.8883 130.571 23.8773 130.698 23.8553C130.828 23.8332 130.943 23.8084 131.045 23.7809C131.147 23.7506 131.231 23.7231 131.297 23.6983C131.366 23.6735 131.409 23.6584 131.425 23.6529L131.586 24.289C131.57 24.2973 131.526 24.3179 131.454 24.351C131.383 24.384 131.289 24.4184 131.173 24.4542C131.058 24.4873 130.923 24.5176 130.768 24.5451C130.614 24.5754 130.446 24.5905 130.264 24.5905C129.995 24.5905 129.776 24.5465 129.608 24.4584C129.442 24.3702 129.313 24.2491 129.219 24.0948C129.126 23.9379 129.062 23.7534 129.029 23.5413C128.999 23.3293 128.984 23.1007 128.984 22.8556V20.72L129.149 20.4722L128.571 20.6374H127.741L127.658 19.9765H129.769V22.8969ZM128.959 18.3242H129.794V19.1504H128.959V18.3242Z" fill="white"/>
<path d="M125.433 20.8067C125.38 20.782 125.317 20.7544 125.243 20.7241C125.171 20.6911 125.09 20.6622 124.999 20.6374C124.908 20.6099 124.807 20.5878 124.697 20.5713C124.59 20.552 124.474 20.5424 124.35 20.5424C124.182 20.5424 124.018 20.5506 123.859 20.5672C123.699 20.5837 123.557 20.614 123.433 20.658C123.309 20.7021 123.209 20.7613 123.132 20.8357C123.057 20.91 123.02 21.0064 123.02 21.1248C123.02 21.224 123.057 21.3093 123.132 21.3809C123.206 21.4498 123.302 21.5104 123.421 21.5627C123.542 21.6122 123.678 21.6563 123.83 21.6949C123.981 21.7307 124.134 21.7651 124.288 21.7981C124.443 21.8312 124.591 21.8642 124.734 21.8973C124.878 21.9276 125.002 21.962 125.106 22.0005C125.227 22.0473 125.34 22.1066 125.445 22.1782C125.552 22.2498 125.646 22.3337 125.726 22.4301C125.806 22.5238 125.868 22.6284 125.912 22.7441C125.959 22.857 125.982 22.9795 125.982 23.1117C125.982 23.2907 125.947 23.4518 125.879 23.595C125.81 23.7354 125.716 23.8607 125.598 23.9709C125.482 24.0783 125.347 24.1719 125.193 24.2518C125.039 24.3289 124.875 24.3936 124.701 24.4459C124.531 24.4955 124.356 24.5313 124.177 24.5533C124.001 24.5781 123.831 24.5905 123.669 24.5905C123.575 24.5905 123.458 24.5809 123.318 24.5616C123.18 24.5451 123.038 24.5217 122.892 24.4914C122.749 24.4583 122.613 24.4198 122.483 24.3757C122.354 24.3316 122.253 24.2848 122.182 24.2353L122.454 23.6487C122.52 23.6817 122.607 23.7148 122.715 23.7478C122.822 23.7809 122.935 23.8112 123.053 23.8387C123.172 23.8662 123.286 23.8883 123.396 23.9048C123.509 23.9213 123.603 23.9296 123.677 23.9296C123.762 23.9296 123.857 23.9254 123.962 23.9172C124.069 23.9062 124.178 23.8897 124.288 23.8676C124.401 23.8428 124.51 23.8112 124.615 23.7726C124.722 23.7313 124.817 23.6804 124.9 23.6198C124.982 23.5592 125.048 23.4876 125.098 23.405C125.15 23.3224 125.176 23.226 125.176 23.1158C125.176 23.0084 125.141 22.9176 125.069 22.8432C124.997 22.7688 124.902 22.7055 124.784 22.6532C124.666 22.6009 124.532 22.5568 124.383 22.521C124.237 22.4824 124.087 22.4466 123.933 22.4136C123.779 22.3806 123.63 22.3475 123.487 22.3145C123.344 22.2787 123.218 22.2346 123.111 22.1823C122.954 22.1079 122.823 22.0281 122.719 21.9427C122.617 21.8546 122.534 21.7623 122.471 21.6659C122.41 21.5696 122.368 21.469 122.343 21.3644C122.318 21.2598 122.306 21.1524 122.306 21.0422C122.306 20.8467 122.361 20.6773 122.471 20.5341C122.584 20.3909 122.734 20.2739 122.921 20.183C123.108 20.0894 123.323 20.0205 123.565 19.9765C123.808 19.9297 124.061 19.9062 124.325 19.9062C124.469 19.9062 124.608 19.9145 124.743 19.931C124.88 19.9476 125.008 19.9696 125.127 19.9971C125.248 20.0247 125.355 20.0563 125.449 20.0921C125.543 20.1252 125.617 20.1596 125.672 20.1954L125.433 20.8067Z" fill="white"/>
<path d="M117.701 24.52H116.957V19.9762L117.701 19.8936V20.6908L117.953 20.2075C118.002 20.1744 118.06 20.14 118.126 20.1042C118.195 20.0684 118.278 20.0368 118.374 20.0092C118.471 19.9789 118.585 19.9541 118.717 19.9349C118.849 19.9156 119.005 19.9059 119.184 19.9059C119.401 19.9059 119.597 19.9417 119.77 20.0133C119.947 20.0822 120.094 20.1827 120.212 20.3149C120.333 20.4471 120.426 20.6068 120.489 20.7941C120.555 20.9813 120.588 21.1906 120.588 21.4219V24.52H119.845V21.4219C119.845 21.2732 119.82 21.1452 119.77 21.0378C119.723 20.9304 119.657 20.8422 119.572 20.7734C119.487 20.7018 119.388 20.6495 119.275 20.6164C119.162 20.5834 119.042 20.5669 118.915 20.5669C118.783 20.5669 118.655 20.5834 118.531 20.6164C118.41 20.6495 118.297 20.6922 118.192 20.7445C118.088 20.7941 117.993 20.8491 117.907 20.9097C117.825 20.9675 117.756 21.0226 117.701 21.0749V24.52Z" fill="white"/>
<path d="M113.649 22.8969C113.649 23.0401 113.658 23.1723 113.674 23.2935C113.693 23.4147 113.724 23.5193 113.765 23.6074C113.806 23.6955 113.861 23.7644 113.93 23.814C113.999 23.8635 114.084 23.8883 114.186 23.8883C114.321 23.8883 114.452 23.8773 114.579 23.8553C114.708 23.8332 114.824 23.8084 114.926 23.7809C115.028 23.7506 115.112 23.7231 115.178 23.6983C115.247 23.6735 115.289 23.6584 115.306 23.6529L115.467 24.289C115.45 24.2973 115.406 24.3179 115.335 24.351C115.263 24.384 115.169 24.4184 115.054 24.4542C114.938 24.4873 114.803 24.5176 114.649 24.5451C114.495 24.5754 114.327 24.5905 114.145 24.5905C113.875 24.5905 113.656 24.5465 113.488 24.4584C113.323 24.3702 113.194 24.2491 113.1 24.0948C113.006 23.9379 112.943 23.7534 112.91 23.5413C112.88 23.3293 112.865 23.1007 112.865 22.8556V20.72L113.03 20.4722L112.451 20.6374H111.621L111.539 19.9765H113.649V22.8969ZM112.84 18.3242H113.674V19.1504H112.84V18.3242Z" fill="white"/>
<path d="M100.838 24.5199V18.6543L100.755 17.9107L101.581 17.8281V21.6697L103.192 19.9761H104.138L102.569 21.6697L101.833 21.9299L102.569 22.1778L104.597 24.5199H103.622L101.581 22.2191V24.5199H100.838Z" fill="white"/>
<path d="M98.7526 20.8935C98.6452 20.7971 98.4965 20.7186 98.3065 20.658C98.1165 20.5975 97.8755 20.5672 97.5836 20.5672C97.3523 20.5672 97.1444 20.6112 96.9598 20.6993C96.7781 20.7847 96.6225 20.9018 96.4931 21.0505C96.3664 21.1992 96.2686 21.3727 96.1998 21.5709C96.1337 21.7665 96.1007 21.973 96.1007 22.1905C96.1007 22.4164 96.1323 22.6325 96.1957 22.8391C96.2618 23.0429 96.3581 23.2232 96.4848 23.3802C96.6142 23.5372 96.774 23.6625 96.964 23.7561C97.154 23.847 97.3757 23.8924 97.629 23.8924C97.7722 23.8924 97.9099 23.8759 98.0421 23.8428C98.1743 23.8098 98.2941 23.7712 98.4015 23.7272C98.5089 23.6804 98.5997 23.6349 98.6741 23.5909C98.7512 23.544 98.8063 23.5069 98.8393 23.4793L99.1367 24.0618C99.0954 24.0976 99.0335 24.1458 98.9509 24.2063C98.8682 24.2642 98.7622 24.322 98.6328 24.3798C98.5061 24.4377 98.3547 24.4872 98.1784 24.5285C98.0049 24.5698 97.8025 24.5905 97.5712 24.5905C97.227 24.5905 96.9144 24.523 96.6335 24.3881C96.3554 24.2504 96.1172 24.0686 95.9189 23.8428C95.7206 23.6143 95.5664 23.3527 95.4563 23.058C95.3489 22.7633 95.2952 22.4563 95.2952 22.1368C95.2952 21.8504 95.3475 21.5737 95.4521 21.3066C95.5595 21.0367 95.7124 20.7985 95.9106 20.592C96.1089 20.3854 96.3499 20.2202 96.6335 20.0963C96.9172 19.9696 97.2366 19.9062 97.5919 19.9062C97.9278 19.9062 98.2294 19.9462 98.4965 20.026C98.7664 20.1031 98.988 20.2367 99.1615 20.4267L98.7526 20.8935Z" fill="white"/>
<path d="M91.9005 24.5905C91.5948 24.5905 91.3139 24.5313 91.0578 24.4129C90.8045 24.2917 90.5855 24.1265 90.401 23.9172C90.2165 23.7051 90.0719 23.4559 89.9673 23.1695C89.8654 22.8831 89.8145 22.5719 89.8145 22.236C89.8145 21.9028 89.864 21.5943 89.9632 21.3107C90.0623 21.0243 90.2027 20.7778 90.3845 20.5713C90.5662 20.362 90.7852 20.1995 91.0413 20.0839C91.3001 19.9655 91.5865 19.9062 91.9005 19.9062C92.2061 19.9062 92.4843 19.9655 92.7349 20.0839C92.9855 20.1995 93.2003 20.362 93.3793 20.5713C93.561 20.7778 93.7015 21.0243 93.8006 21.3107C93.8997 21.5943 93.9493 21.9028 93.9493 22.236C93.9493 22.5719 93.9011 22.8831 93.8047 23.1695C93.7111 23.4559 93.5748 23.7051 93.3958 23.9172C93.2196 24.1265 93.0048 24.2917 92.7514 24.4129C92.498 24.5313 92.2144 24.5905 91.9005 24.5905ZM93.1645 22.3475C93.1645 22.1245 93.1411 21.9055 93.0943 21.6907C93.0474 21.4759 92.9731 21.2845 92.8712 21.1166C92.7693 20.9458 92.6371 20.8081 92.4746 20.7035C92.3122 20.5988 92.1153 20.5465 91.8839 20.5465C91.6636 20.5465 91.4723 20.592 91.3098 20.6828C91.1473 20.7737 91.0137 20.8949 90.9091 21.0463C90.8045 21.1978 90.726 21.3699 90.6736 21.5627C90.6241 21.7554 90.5993 21.9537 90.5993 22.1575C90.5993 22.3806 90.6241 22.5995 90.6736 22.8143C90.726 23.0291 90.8045 23.2205 90.9091 23.3885C91.0165 23.5564 91.1528 23.6928 91.318 23.7974C91.486 23.8993 91.6857 23.9502 91.917 23.9502C92.1345 23.9502 92.3218 23.9048 92.4788 23.8139C92.6385 23.723 92.7679 23.6033 92.8671 23.4545C92.969 23.3031 93.0433 23.1323 93.0901 22.9423C93.1397 22.7496 93.1645 22.5513 93.1645 22.3475Z" fill="white"/>
<path d="M85.9534 18.6547L86.1186 18.4068L85.5403 18.572H84.7101L84.6274 17.9111H86.6969V22.9671C86.6969 23.1489 86.7107 23.3017 86.7382 23.4257C86.7658 23.5468 86.803 23.646 86.8498 23.7231C86.8966 23.7974 86.953 23.8511 87.0191 23.8842C87.0852 23.9145 87.1568 23.9296 87.2339 23.9296C87.3441 23.9296 87.4446 23.9213 87.5355 23.9048C87.6291 23.8883 87.7117 23.8676 87.7833 23.8429C87.8577 23.8181 87.921 23.7919 87.9733 23.7644C88.0284 23.7368 88.0725 23.7134 88.1055 23.6942L88.3905 24.194C88.3685 24.2132 88.3231 24.2449 88.2542 24.289C88.1854 24.333 88.0973 24.3771 87.9899 24.4212C87.8852 24.4652 87.7613 24.5038 87.6181 24.5368C87.4776 24.5726 87.3221 24.5905 87.1513 24.5905C86.9035 24.5905 86.7011 24.5451 86.5441 24.4542C86.3871 24.3633 86.2646 24.2394 86.1765 24.0824C86.0911 23.9255 86.0319 23.7437 85.9988 23.5372C85.9686 23.3279 85.9534 23.1048 85.9534 22.868V18.6547Z" fill="white"/>
<path d="M80.0887 24.52H79.3452V19.9762L80.0887 19.8936V20.6908L80.3407 20.2075C80.3903 20.1744 80.4481 20.14 80.5142 20.1042C80.5831 20.0684 80.6657 20.0368 80.7621 20.0092C80.8584 19.9789 80.9727 19.9541 81.1049 19.9349C81.2371 19.9156 81.3927 19.9059 81.5717 19.9059C81.7892 19.9059 81.9848 19.9417 82.1582 20.0133C82.3345 20.0822 82.4818 20.1827 82.6002 20.3149C82.7214 20.4471 82.8137 20.6068 82.877 20.7941C82.9431 20.9813 82.9761 21.1906 82.9761 21.4219V24.52H82.2326V21.4219C82.2326 21.2732 82.2078 21.1452 82.1582 21.0378C82.1114 20.9304 82.0453 20.8422 81.96 20.7734C81.8746 20.7018 81.7755 20.6495 81.6626 20.6164C81.5496 20.5834 81.4299 20.5669 81.3032 20.5669C81.171 20.5669 81.0429 20.5834 80.919 20.6164C80.7979 20.6495 80.6849 20.6922 80.5803 20.7445C80.4757 20.7941 80.3807 20.8491 80.2953 20.9097C80.2127 20.9675 80.1438 21.0226 80.0887 21.0749V24.52Z" fill="white"/>
<path d="M76.9458 19.9762L77.6893 19.8936V24.52H76.9458V23.7764L76.6938 24.2184C76.669 24.2487 76.6291 24.2845 76.574 24.3258C76.519 24.3671 76.4501 24.4084 76.3675 24.4497C76.2849 24.4883 76.1899 24.5213 76.0825 24.5489C75.9751 24.5764 75.8553 24.5902 75.7231 24.5902C75.3899 24.5902 75.1104 24.5392 74.8846 24.4374C74.6615 24.3327 74.4825 24.195 74.3476 24.0243C74.2126 23.8535 74.1163 23.6566 74.0584 23.4336C74.0006 23.2105 73.9717 22.9806 73.9717 22.7438V19.9762L74.7152 19.8936V22.7438C74.7152 22.9228 74.7331 23.0839 74.7689 23.2271C74.8047 23.3703 74.8653 23.4928 74.9507 23.5947C75.0388 23.6966 75.1544 23.7751 75.2976 23.8301C75.4436 23.8825 75.624 23.9086 75.8388 23.9086C75.9985 23.9086 76.1403 23.8866 76.2642 23.8425C76.3882 23.7957 76.4956 23.7406 76.5864 23.6773C76.6801 23.6112 76.7558 23.5424 76.8136 23.4708C76.8742 23.3992 76.9183 23.3358 76.9458 23.2808V19.9762Z" fill="white"/>
<circle cx="54.2323" cy="15.1684" r="4.92227" fill="white"/>
<circle cx="14.6352" cy="15.1684" r="4.92227" fill="white"/>
<path fill-rule="evenodd" clip-rule="evenodd" d="M23.0309 26.7581C20.6732 28.468 17.7734 29.4763 14.6384 29.4763C6.73636 29.4763 0.330078 23.0701 0.330078 15.1678C0.330078 7.26554 6.73636 0.859375 14.6384 0.859375C17.4645 0.859375 20.0991 1.67873 22.3181 3.09269C23.5275 3.55879 29.9135 5.93717 34.3275 5.93764C38.6888 5.93811 44.8811 3.80401 46.1794 3.33873C48.4732 1.77419 51.246 0.859375 54.2319 0.859375C62.1345 0.859375 68.5408 7.26554 68.5408 15.1678C68.5408 23.0701 62.1345 29.4763 54.2319 29.4763C51.3218 29.4763 48.6142 28.6073 46.3548 27.1146C45.6081 26.7816 38.9667 23.8797 34.3275 23.8803C30.4651 23.8808 25.1408 25.8931 23.0309 26.7581ZM24.011 15.1678C24.011 20.3459 19.8133 24.5435 14.6353 24.5435C9.4572 24.5435 5.25954 20.3459 5.25954 15.1678C5.25954 9.98973 9.4572 5.79208 14.6353 5.79208C19.8133 5.79208 24.011 9.98973 24.011 15.1678ZM54.2319 24.5435C59.41 24.5435 63.6076 20.3459 63.6076 15.1678C63.6076 9.98973 59.41 5.79208 54.2319 5.79208C49.0538 5.79208 44.8562 9.98973 44.8562 15.1678C44.8562 20.3459 49.0538 24.5435 54.2319 24.5435Z" fill="white"/>
<path d="M70.5146 3.86846C70.5146 3.40932 70.8869 3.03711 71.346 3.03711V27.263C70.8869 27.263 70.5146 26.8908 70.5146 26.4316V3.86846Z" fill="white"/>
</svg>
