<svg width="202" height="46" viewBox="0 0 202 46" fill="none" xmlns="http://www.w3.org/2000/svg">
<path d="M60.6343 17.5426C60.4012 8.03417 52.4731 0.365234 42.7315 0.365234C37.9384 0.365234 33.6117 2.20474 30.399 5.23604C27.2123 2.23065 22.8856 0.365234 18.1184 0.365234C8.37677 0.365234 0.448753 8.08598 0.215576 17.724V17.7758V17.8276C0.215576 25.1597 2.93598 31.6887 5.4232 36.1709C6.66681 38.4508 7.93633 40.2903 8.89494 41.5858C9.3613 42.2335 9.77584 42.7516 10.0867 43.1144C10.2422 43.2957 10.3717 43.4253 10.4495 43.5548C10.5013 43.6066 10.5272 43.6325 10.5531 43.6843C10.579 43.7103 10.579 43.7103 10.6049 43.7362L10.6308 43.7621L10.6567 43.788C12.7294 46.1457 16.3566 46.4047 18.7402 44.3321C21.1238 42.2594 21.357 38.684 19.3102 36.3004C19.3102 36.3004 19.3102 36.3004 19.3102 36.2745C19.3102 36.2486 19.2843 36.2486 19.2584 36.2227C19.2065 36.1709 19.1547 36.0931 19.0511 35.9636C18.8697 35.7304 18.5588 35.3677 18.222 34.8495C17.4966 33.865 16.5121 32.4141 15.5534 30.6264C13.5585 27.0251 11.7967 22.4911 11.7708 17.8535C11.9003 14.4077 14.7503 11.6614 18.222 11.6614C21.7456 11.6614 24.5955 14.4336 24.6733 17.9312C24.6992 18.8121 24.9323 19.6412 25.2951 20.3926C26.1241 22.5171 28.1968 24.0457 30.6581 24.0457C33.819 24.0457 36.3839 21.5325 36.3839 18.3976V17.6722C36.5135 14.2781 39.3634 11.5577 42.8352 11.5577C46.3069 11.5577 49.1568 14.2781 49.2864 17.6722C49.2605 21.3771 48.0687 25.0302 46.6955 27.906C46.0219 29.331 45.3483 30.471 44.8819 31.2741C44.6488 31.6628 44.4156 31.9737 44.3119 32.155C44.2601 32.2328 44.2083 32.3105 44.1824 32.3364C44.1565 32.3623 44.1565 32.3623 44.1565 32.3623C44.1306 32.3882 44.1047 32.44 44.1047 32.44C45.1669 31.1446 46.7473 30.3414 48.5868 30.3414C51.7477 30.3414 54.3126 32.8546 54.3126 35.9636C54.3126 37.0777 53.9758 38.114 53.3799 39.0208C53.4058 39.0467 53.4058 39.0467 53.4058 39.0467V39.0208L53.4318 38.9949C53.4577 38.969 53.4577 38.969 53.4577 38.9431C53.4836 38.9172 53.5095 38.8913 53.5354 38.8135C53.5872 38.7358 53.6908 38.6063 53.7945 38.4508C54.0017 38.1399 54.2867 37.7254 54.6236 37.1554C55.2972 36.0672 56.204 34.5386 57.0849 32.6473C58.8207 28.9424 60.738 23.5793 60.738 17.5944V17.5426H60.6343Z" fill="white"/>
<path d="M48.6645 30.2119C46.8509 30.2119 45.2446 31.041 44.1823 32.3105C43.4051 33.2691 42.9387 34.4868 42.9387 35.8082C42.9387 38.9172 45.5037 41.4303 48.6645 41.4303C50.5299 41.4303 52.1622 40.5494 53.2244 39.2022C53.3021 39.0726 53.4058 38.969 53.4835 38.8395C54.0535 37.9586 54.4162 36.9222 54.4162 35.7823C54.3644 32.725 51.8254 30.2119 48.6645 30.2119Z" fill="white"/>
<path d="M198.445 15.5393C199.972 16.5175 200.849 18.1996 201.075 20.5856H195.975C195.904 19.9294 195.719 19.4105 195.421 19.0287C194.86 18.3368 193.906 17.9909 192.558 17.9909C191.448 17.9909 190.655 18.1638 190.178 18.5098C189.712 18.8558 189.48 19.2614 189.48 19.7266C189.48 20.3112 189.73 20.7347 190.231 20.9971C190.732 21.2715 192.504 21.7428 195.546 22.4108C197.574 22.888 199.095 23.6098 200.109 24.5761C201.111 25.5543 201.612 26.7771 201.612 28.2444C201.612 30.1771 200.89 31.7577 199.447 32.9865C198.015 34.2033 195.796 34.8118 192.79 34.8118C189.724 34.8118 187.458 34.1676 185.99 32.8791C184.535 31.5788 183.807 29.9265 183.807 27.9223H188.979C189.086 28.829 189.319 29.4732 189.677 29.855C190.309 30.535 191.478 30.875 193.184 30.875C194.186 30.875 194.979 30.7258 195.564 30.4276C196.16 30.1293 196.459 29.682 196.459 29.0855C196.459 28.5129 196.22 28.0774 195.743 27.7792C195.266 27.4809 193.494 26.968 190.428 26.2403C188.221 25.6915 186.664 25.0055 185.758 24.1824C184.851 23.3712 184.398 22.202 184.398 20.675C184.398 18.8737 185.102 17.3288 186.509 16.0404C187.929 14.74 189.921 14.0898 192.486 14.0898C194.92 14.0898 196.906 14.573 198.445 15.5393Z" fill="white"/>
<path d="M180.049 14.6449V34.15H174.878V14.6449H180.049ZM180.049 7.6123V12.3186H174.878V7.6123H180.049Z" fill="white"/>
<path d="M164.714 7.77344H169.814V34.15H164.714V7.77344Z" fill="white"/>
<path d="M144.94 16.7565C146.288 15.0386 148.603 14.1797 151.883 14.1797C154.019 14.1797 155.916 14.6032 157.574 15.4502C159.232 16.2972 160.061 17.8958 160.061 20.2459V29.1932C160.061 29.8136 160.073 30.5652 160.097 31.4479C160.133 32.116 160.234 32.5693 160.401 32.8079C160.568 33.0465 160.819 33.2434 161.153 33.3985V34.15H155.605C155.45 33.7563 155.343 33.3865 155.283 33.0406C155.224 32.6946 155.176 32.3009 155.14 31.8595C154.436 32.623 153.625 33.2732 152.706 33.81C151.609 34.4423 150.368 34.7584 148.984 34.7584C147.219 34.7584 145.757 34.2574 144.6 33.2553C143.455 32.2413 142.882 30.8097 142.882 28.9606C142.882 26.5627 143.807 24.827 145.656 23.7533C146.67 23.1687 148.161 22.7512 150.13 22.5007L151.865 22.2859C152.808 22.1666 153.482 22.0175 153.887 21.8386C154.615 21.5284 154.979 21.0452 154.979 20.3891C154.979 19.5898 154.699 19.041 154.138 18.7428C153.589 18.4326 152.778 18.2775 151.704 18.2775C150.499 18.2775 149.646 18.5758 149.145 19.1723C148.788 19.6137 148.549 20.2102 148.43 20.9617H143.509C143.616 19.2558 144.093 17.854 144.94 16.7565ZM148.734 30.4637C149.211 30.8574 149.796 31.0543 150.488 31.0543C151.585 31.0543 152.593 30.7322 153.512 30.088C154.442 29.4438 154.925 28.2687 154.961 26.5627V24.6659C154.639 24.8687 154.311 25.0357 153.977 25.167C153.655 25.2863 153.207 25.3996 152.635 25.507L151.49 25.7217C150.416 25.9126 149.646 26.1452 149.181 26.4196C148.394 26.8848 148 27.6066 148 28.5848C148 29.4557 148.245 30.082 148.734 30.4637Z" fill="white"/>
<path d="M139.733 19.3512C137.681 19.3512 136.303 20.0193 135.599 21.3554C135.205 22.107 135.009 23.2642 135.009 24.827V34.15H129.873V14.6449H134.74V18.0449C135.527 16.7446 136.213 15.8558 136.798 15.3786C137.752 14.5793 138.993 14.1797 140.52 14.1797C140.616 14.1797 140.693 14.1857 140.753 14.1976C140.824 14.1976 140.973 14.2035 141.2 14.2155V19.4407C140.878 19.4049 140.592 19.381 140.341 19.3691C140.091 19.3572 139.888 19.3512 139.733 19.3512Z" fill="white"/>
<path d="M123.789 17.1143C125.435 19.1782 126.258 21.6178 126.258 24.4332C126.258 27.2963 125.435 29.7479 123.789 31.7879C122.142 33.8159 119.643 34.8299 116.291 34.8299C112.939 34.8299 110.439 33.8159 108.793 31.7879C107.147 29.7479 106.323 27.2963 106.323 24.4332C106.323 21.6178 107.147 19.1782 108.793 17.1143C110.439 15.0505 112.939 14.0186 116.291 14.0186C119.643 14.0186 122.142 15.0505 123.789 17.1143ZM116.273 18.3311C114.782 18.3311 113.63 18.862 112.819 19.9238C112.02 20.9736 111.62 22.4767 111.62 24.4332C111.62 26.3897 112.02 27.8988 112.819 28.9605C113.63 30.0223 114.782 30.5531 116.273 30.5531C117.764 30.5531 118.909 30.0223 119.709 28.9605C120.508 27.8988 120.908 26.3897 120.908 24.4332C120.908 22.4767 120.508 20.9736 119.709 19.9238C118.909 18.862 117.764 18.3311 116.273 18.3311Z" fill="white"/>
<path d="M85.8703 20.0137C85.4408 19.0712 84.5998 18.6 83.3472 18.6C81.8917 18.6 80.9135 19.0712 80.4125 20.0137C80.1381 20.5505 80.0009 21.3498 80.0009 22.4115V34.1504H74.8293V14.6811H79.7861V17.5263C80.4184 16.5123 81.0149 15.7905 81.5756 15.3611C82.5658 14.5976 83.8482 14.2158 85.4229 14.2158C86.9141 14.2158 88.119 14.5439 89.0376 15.2C89.7773 15.8084 90.338 16.5898 90.7197 17.5442C91.3878 16.399 92.2169 15.5579 93.2071 15.0211C94.2569 14.4842 95.426 14.2158 96.7144 14.2158C97.5733 14.2158 98.4204 14.3828 99.2554 14.7169C100.091 15.0509 100.848 15.6355 101.528 16.4705C102.077 17.1505 102.447 17.9856 102.638 18.9758C102.757 19.6319 102.816 20.5923 102.816 21.8568L102.781 34.1504H97.5555V21.7315C97.5555 20.9919 97.4362 20.3835 97.1976 19.9063C96.7442 18.9996 95.9092 18.5463 94.6923 18.5463C93.2846 18.5463 92.3123 19.1309 91.7755 20.3C91.5011 20.9203 91.3639 21.6659 91.3639 22.5368V34.1504H86.2282V22.5368C86.2282 21.3796 86.1089 20.5386 85.8703 20.0137Z" fill="white"/>
</svg>
