<svg width="254" height="33" viewBox="0 0 254 33" fill="none" xmlns="http://www.w3.org/2000/svg">
<path fill-rule="evenodd" clip-rule="evenodd" d="M251.596 24.803V17.328H253.012V24.803H251.596ZM252.304 15.8329C252.042 15.8329 251.827 15.749 251.659 15.5812C251.491 15.4028 251.407 15.1825 251.407 14.9202C251.407 14.6684 251.491 14.4586 251.659 14.2907C251.827 14.1124 252.042 14.0232 252.304 14.0232C252.566 14.0232 252.781 14.1124 252.949 14.2907C253.117 14.4586 253.201 14.6684 253.201 14.9202C253.201 15.1825 253.117 15.4028 252.949 15.5812C252.781 15.749 252.566 15.8329 252.304 15.8329ZM245.6 24.9603C244.918 24.9603 244.299 24.7924 243.743 24.4567C243.187 24.1105 242.746 23.6436 242.421 23.0561C242.106 22.4686 241.949 21.8076 241.949 21.0732C241.949 20.3388 242.106 19.6779 242.421 19.0904C242.746 18.5029 243.181 18.036 243.727 17.6898C244.283 17.3436 244.907 17.1705 245.6 17.1705C246.166 17.1705 246.67 17.2911 247.11 17.5324C247.503 17.7334 247.828 18.006 248.086 18.3502V17.3278H249.518V24.8029H248.086V23.786C247.837 24.129 247.517 24.405 247.126 24.6141C246.685 24.8449 246.177 24.9603 245.6 24.9603ZM245.836 23.6226C246.539 23.6226 247.105 23.3866 247.535 22.9145C247.965 22.4319 248.18 21.8181 248.18 21.0732C248.18 20.5592 248.081 20.1133 247.881 19.7356C247.693 19.3474 247.42 19.0484 247.063 18.8386C246.706 18.6183 246.292 18.5081 245.82 18.5081C245.348 18.5081 244.928 18.6183 244.561 18.8386C244.204 19.0589 243.921 19.3631 243.711 19.7513C243.512 20.129 243.412 20.5644 243.412 21.0575C243.412 21.5611 243.512 22.007 243.711 22.3951C243.921 22.7728 244.209 23.0718 244.577 23.2921C244.944 23.5125 245.363 23.6226 245.836 23.6226ZM238.667 24.6615C238.866 24.8608 239.113 24.9605 239.407 24.9605C239.7 24.9605 239.942 24.8608 240.131 24.6615C240.33 24.4517 240.43 24.2051 240.43 23.9218C240.43 23.6281 240.33 23.3868 240.131 23.1979C239.942 22.9986 239.7 22.8989 239.407 22.8989C239.113 22.8989 238.866 22.9986 238.667 23.1979C238.478 23.3868 238.384 23.6281 238.384 23.9218C238.384 24.2051 238.478 24.4517 238.667 24.6615Z" fill="#5200FF"/>
<path fill-rule="evenodd" clip-rule="evenodd" d="M169.033 24.6193V15.1745C169.033 13.947 168.646 12.9354 167.873 12.1399C167.101 11.3443 166.1 10.9465 164.873 10.9465C164.055 10.9465 163.327 11.1283 162.691 11.492C162.054 11.8557 161.554 12.3558 161.19 12.9923C160.827 13.6288 160.645 14.3561 160.645 15.1745V24.6193H157.576V0.27417H160.645V10.5158C161.136 9.87272 161.75 9.3457 162.486 8.93476C163.464 8.36648 164.566 8.08234 165.793 8.08234C167.021 8.08234 168.101 8.35511 169.033 8.90066C169.987 9.44621 170.738 10.2077 171.283 11.1851C171.829 12.1626 172.101 13.2878 172.101 14.5607V24.6193H169.033ZM196.102 24.6193V0.27417H199.17V24.6193H196.102ZM206.797 23.8693C208.093 24.5967 209.547 24.9604 211.161 24.9604C212.434 24.9604 213.628 24.7217 214.741 24.2444C215.878 23.767 216.833 23.0737 217.606 22.1644L215.628 20.1527C215.082 20.7892 214.423 21.2666 213.65 21.5848C212.9 21.903 212.07 22.0622 211.161 22.0622C210.07 22.0622 209.104 21.8348 208.263 21.3802C207.422 20.9029 206.774 20.2437 206.319 19.4026C206.041 18.874 205.848 18.2944 205.74 17.6637H218.424C218.492 17.3227 218.537 17.0272 218.56 16.7772C218.583 16.5044 218.594 16.2543 218.594 16.027C218.594 14.504 218.265 13.1402 217.606 11.9354C216.969 10.7307 216.071 9.78731 214.912 9.10537C213.775 8.42344 212.457 8.08247 210.957 8.08247C209.388 8.08247 207.967 8.45753 206.695 9.20766C205.444 9.93506 204.444 10.9352 203.694 12.2082C202.967 13.4811 202.603 14.9132 202.603 16.5044C202.603 18.1183 202.978 19.5617 203.728 20.8347C204.478 22.1076 205.501 23.1192 206.797 23.8693ZM205.746 15.1064C205.851 14.5208 206.031 13.9866 206.285 13.5039C206.717 12.6855 207.331 12.0491 208.127 11.5944C208.922 11.1398 209.843 10.9125 210.888 10.9125C211.889 10.9125 212.741 11.1284 213.446 11.5603C214.15 11.9695 214.696 12.5605 215.082 13.3334C215.346 13.8451 215.52 14.4361 215.603 15.1064H205.746ZM222.281 23.5965C222.963 24.0284 223.702 24.3694 224.497 24.6194C225.316 24.8467 226.18 24.9604 227.089 24.9604C228.907 24.9604 230.351 24.5171 231.419 23.6306C232.51 22.7441 233.056 21.5393 233.056 20.0163C233.056 19.0162 232.84 18.2092 232.408 17.5955C231.999 16.9817 231.465 16.493 230.805 16.1293C230.146 15.7656 229.453 15.4815 228.725 15.2769C227.998 15.0496 227.293 14.8336 226.611 14.6291C225.952 14.4245 225.418 14.1744 225.009 13.8789C224.6 13.5834 224.395 13.1629 224.395 12.6173C224.395 12.0718 224.622 11.6513 225.077 11.3558C225.554 11.0375 226.236 10.8784 227.123 10.8784C227.964 10.8784 228.714 11.0375 229.373 11.3558C230.055 11.674 230.623 12.1286 231.078 12.7196L233.056 10.742C232.419 9.8555 231.601 9.1963 230.601 8.7644C229.623 8.30978 228.498 8.08247 227.225 8.08247C226.02 8.08247 224.986 8.27569 224.122 8.66212C223.281 9.04854 222.622 9.60546 222.145 10.3329C221.667 11.0375 221.429 11.8786 221.429 12.856C221.429 13.8335 221.633 14.6177 222.042 15.2087C222.474 15.7997 223.02 16.2657 223.679 16.6067C224.338 16.9476 225.032 17.2318 225.759 17.4591C226.509 17.6637 227.214 17.8796 227.873 18.1069C228.532 18.3115 229.066 18.5843 229.476 18.9253C229.907 19.2435 230.123 19.6981 230.123 20.2891C230.123 20.8801 229.862 21.3461 229.339 21.6871C228.816 22.0053 228.078 22.1644 227.123 22.1644C226.168 22.1644 225.304 21.994 224.532 21.653C223.759 21.2893 223.077 20.7437 222.486 20.0163L220.508 21.994C221.008 22.6077 221.599 23.1419 222.281 23.5965ZM179.12 23.8693C180.325 24.5967 181.666 24.9604 183.143 24.9604C184.394 24.9604 185.496 24.7103 186.451 24.2103C187.298 23.7573 187.991 23.1592 188.531 22.4162V24.6194H191.633V8.42344H188.531V10.6386C187.973 9.89283 187.268 9.30219 186.417 8.8667C185.462 8.34388 184.371 8.08247 183.143 8.08247C181.643 8.08247 180.291 8.45753 179.086 9.20766C177.904 9.95779 176.96 10.9693 176.256 12.2423C175.574 13.5152 175.233 14.9473 175.233 16.5385C175.233 18.1297 175.574 19.5617 176.256 20.8347C176.96 22.1076 177.915 23.1192 179.12 23.8693ZM187.337 20.5278C186.405 21.5507 185.178 22.0622 183.655 22.0622C182.632 22.0622 181.723 21.8235 180.927 21.3461C180.131 20.8688 179.506 20.2209 179.052 19.4026C178.62 18.5616 178.404 17.5955 178.404 16.5044C178.404 15.436 178.62 14.4927 179.052 13.6743C179.506 12.8333 180.12 12.1741 180.893 11.6967C181.689 11.2194 182.598 10.9807 183.621 10.9807C184.644 10.9807 185.541 11.2194 186.314 11.6967C187.087 12.1514 187.678 12.7992 188.087 13.6402C188.519 14.4586 188.735 15.4246 188.735 16.5385C188.735 18.1524 188.269 19.4822 187.337 20.5278ZM130.23 8.42345L136.641 24.6194H138.414L142.554 13.8476L146.665 24.6194H148.472L154.848 8.42345H151.643L147.519 19.6427L143.426 8.42345H141.653L137.559 19.6427L133.436 8.42345H130.23Z" fill="white" fill-opacity="0.7"/>
<path fill-rule="evenodd" clip-rule="evenodd" d="M117.844 23.9373V10.5373H113.855V7.74132H117.844V0.956055H120.913V7.74132H124.902V10.5373H120.913V23.9373H117.844ZM101.736 23.9374V7.7414H104.805V9.62356C104.891 9.49203 104.982 9.36473 105.077 9.24166C106.032 8.01417 107.407 7.40043 109.203 7.40043C110.021 7.40043 110.76 7.54818 111.419 7.84369C112.078 8.11646 112.692 8.58245 113.261 9.24166L111.249 11.3216C110.908 10.9579 110.533 10.6965 110.124 10.5373C109.714 10.3782 109.237 10.2987 108.692 10.2987C107.555 10.2987 106.623 10.6624 105.896 11.3898C105.168 12.1172 104.805 13.2196 104.805 14.6971V23.9374H101.736ZM84.7548 23.1873C85.9596 23.9146 87.3007 24.2784 88.7782 24.2784C90.0284 24.2784 91.1309 24.0283 92.0856 23.5282C92.9325 23.0752 93.6258 22.4772 94.1655 21.7341V23.9374H97.2683V7.7414H94.1655V9.95658C93.6074 9.21079 92.9027 8.62015 92.0515 8.18466C91.0968 7.66184 90.0057 7.40043 88.7782 7.40043C87.278 7.40043 85.9255 7.7755 84.7207 8.52563C83.5387 9.27575 82.5953 10.2873 81.8907 11.5602C81.2087 12.8332 80.8678 14.2653 80.8678 15.8564C80.8678 17.4476 81.2087 18.8797 81.8907 20.1526C82.5953 21.4256 83.55 22.4371 84.7548 23.1873ZM92.9721 19.8458C92.0401 20.8687 90.8127 21.3801 89.2897 21.3801C88.2668 21.3801 87.3575 21.1414 86.5619 20.6641C85.7663 20.1867 85.1412 19.5389 84.6866 18.7206C84.2547 17.8795 84.0388 16.9134 84.0388 15.8223C84.0388 14.754 84.2547 13.8106 84.6866 12.9923C85.1412 12.1513 85.755 11.492 86.5278 11.0147C87.3234 10.5373 88.2327 10.2987 89.2556 10.2987C90.2785 10.2987 91.1764 10.5373 91.9492 11.0147C92.7221 11.4693 93.3131 12.1172 93.7223 12.9582C94.1542 13.7765 94.3701 14.7426 94.3701 15.8564C94.3701 17.4704 93.9041 18.8001 92.9721 19.8458ZM52.7216 23.9374V7.7414H55.7904V9.61528C56.2661 9.02834 56.8457 8.55147 57.5293 8.18466C58.4613 7.66184 59.5069 7.40043 60.6662 7.40043C61.8028 7.40043 62.8257 7.65047 63.7349 8.15056C64.6669 8.65065 65.3943 9.35532 65.9171 10.2646C65.9316 10.2886 65.9458 10.3128 65.9599 10.3372L65.9853 10.2987C66.599 9.38941 67.3833 8.68474 68.338 8.18466C69.2927 7.66184 70.3383 7.40043 71.4749 7.40043C72.6569 7.40043 73.7139 7.65047 74.6459 8.15056C75.5779 8.65065 76.3166 9.35532 76.8622 10.2646C77.4305 11.1738 77.7146 12.2649 77.7146 13.5379V23.9374H74.6118V14.1516C74.6118 12.9468 74.2367 12.0035 73.4866 11.3216C72.7592 10.6169 71.8499 10.2646 70.7589 10.2646C70.0087 10.2646 69.3268 10.4237 68.713 10.7419C68.122 11.0602 67.6447 11.5034 67.281 12.0717C66.9173 12.64 66.7354 13.3219 66.7354 14.1175V23.9374H63.6667V14.1516C63.6667 12.9468 63.2917 12.0035 62.5415 11.3216C61.8141 10.6169 60.8935 10.2646 59.7797 10.2646C59.0296 10.2646 58.359 10.4237 57.768 10.7419C57.177 11.0602 56.6996 11.5034 56.3359 12.0717C55.9722 12.64 55.7904 13.3219 55.7904 14.1175V23.9374H52.7216ZM40.7281 23.9374C41.5464 24.1647 42.4102 24.2784 43.3195 24.2784C45.1379 24.2784 46.5814 23.8351 47.6497 22.9486C48.7408 22.0621 49.2864 20.8573 49.2864 19.3343C49.2864 18.3341 49.0704 17.5272 48.6386 16.9134C48.2294 16.2997 47.6952 15.811 47.036 15.4473C46.3768 15.0836 45.6835 14.7994 44.9561 14.5949C44.2287 14.3675 43.524 14.1516 42.8421 13.947C42.1829 13.7424 41.6487 13.4924 41.2395 13.1969C40.8304 12.9014 40.6258 12.4809 40.6258 11.9353C40.6258 11.3898 40.8531 10.9692 41.3077 10.6737C41.7851 10.3555 42.467 10.1964 43.3535 10.1964C44.1946 10.1964 44.9447 10.3555 45.6039 10.6737C46.2859 10.992 46.8542 11.4466 47.3088 12.0376L49.2864 10.06C48.6499 9.17347 47.8316 8.51426 46.8314 8.08237C45.854 7.62774 44.7288 7.40043 43.4558 7.40043C42.2511 7.40043 41.2168 7.59365 40.353 7.98008C39.512 8.36651 38.8528 8.92342 38.3754 9.65082C37.8981 10.3555 37.6594 11.1965 37.6594 12.174C37.6594 13.1514 37.864 13.9357 38.2731 14.5267C38.705 15.1177 39.2506 15.5837 39.9098 15.9246C40.569 16.2656 41.2623 16.5497 41.9897 16.7771C42.7398 16.9816 43.4445 17.1976 44.1037 17.4249C44.7629 17.6295 45.2971 17.9022 45.7062 18.2432C46.1381 18.5615 46.3541 19.0161 46.3541 19.6071C46.3541 20.1981 46.0927 20.6641 45.5698 21.0051C45.047 21.3233 44.3083 21.4824 43.3535 21.4824C42.3988 21.4824 41.5351 21.3119 40.7622 20.971C39.9893 20.6073 39.3074 20.0617 38.7164 19.3343L36.7388 21.3119C37.2389 21.9257 37.8299 22.4599 38.5118 22.9145C39.1937 23.3464 39.9325 23.6873 40.7281 23.9374Z" fill="white"/>
<path fill-rule="evenodd" clip-rule="evenodd" d="M22.7856 0.956055C20.555 0.956093 19.0269 0.956055 13.6178 0.956055C6.57458 1.5341 0.20459 7.04601 0.20459 15.6614C0.20459 20.7809 3.56886 30.5775 19.9868 30.5775C22.2287 32.1494 23.1935 32.3369 24.5774 31.8709C24.7027 30.4655 23.7929 29.5699 21.7924 27.931C21.8587 25.9584 21.8224 24.891 20.9624 23.406C19.7107 23.5865 18.7176 24.8584 18.2844 26.9343C15.8704 27.1208 13.2814 24.7807 13.2814 22.3547V20.7809C13.5804 19.7775 13.9486 19.3934 15.0545 19.1075H21.8791C23.0377 18.8565 23.3742 18.4042 23.5833 17.2084H15.159C14.4825 17.104 14.1363 16.8656 13.5704 16.1259L13.7854 15.9016H26.3462C26.7955 15.7454 26.9568 15.585 27.0964 15.1763C27.0964 15.1763 27.4675 8.31332 27.0964 5.45995C26.7253 2.60658 25.3593 1.49673 22.7856 0.956055ZM12.2339 10.8817C12.997 10.8817 13.6156 10.2631 13.6156 9.50007C13.6156 8.73698 12.997 8.11838 12.2339 8.11838C11.4709 8.11838 10.8523 8.73698 10.8523 9.50007C10.8523 10.2631 11.4709 10.8817 12.2339 10.8817Z" fill="white"/>
</svg>
