<svg width="176" height="40" viewBox="0 0 176 40" fill="none" xmlns="http://www.w3.org/2000/svg">
<path d="M151.476 15.2323H153.743V17.2482C154.415 16.4171 155.127 15.8203 155.879 15.4578C156.63 15.0953 157.466 14.9141 158.385 14.9141C160.401 14.9141 161.762 15.6169 162.47 17.0227C162.859 17.7919 163.053 18.8927 163.053 20.3249V29.4359H160.626V20.4841C160.626 19.6176 160.498 18.9192 160.242 18.3887C159.817 17.5046 159.048 17.0625 157.934 17.0625C157.368 17.0625 156.904 17.12 156.542 17.2349C155.887 17.4294 155.313 17.8184 154.818 18.402C154.42 18.8706 154.159 19.3568 154.035 19.8608C153.92 20.3559 153.863 21.0676 153.863 21.996V29.4359H151.476V15.2323Z" fill="white"/>
<path d="M145.428 15.2987H147.855V29.4359H145.428V15.2987ZM145.428 9.9541H147.855V12.6595H145.428V9.9541Z" fill="white"/>
<path d="M132.139 25.6564C132.139 26.346 132.391 26.8898 132.895 27.2876C133.399 27.6855 133.996 27.8844 134.686 27.8844C135.525 27.8844 136.339 27.6899 137.126 27.3009C138.452 26.6555 139.115 25.599 139.115 24.1313V22.2083C138.823 22.394 138.448 22.5487 137.988 22.6725C137.528 22.7963 137.077 22.8847 136.635 22.9377L135.19 23.1234C134.323 23.2383 133.673 23.4196 133.24 23.6671C132.506 24.0827 132.139 24.7458 132.139 25.6564ZM137.921 20.8291C138.47 20.7583 138.837 20.5285 139.022 20.1394C139.128 19.9272 139.181 19.6222 139.181 19.2244C139.181 18.411 138.89 17.823 138.306 17.4605C137.731 17.0892 136.905 16.9035 135.826 16.9035C134.579 16.9035 133.695 17.2395 133.174 17.9114C132.882 18.2828 132.692 18.8353 132.603 19.5692H130.375C130.42 17.8186 130.985 16.6029 132.073 15.9221C133.169 15.2325 134.438 14.8877 135.879 14.8877C137.55 14.8877 138.907 15.206 139.951 15.8426C140.985 16.4791 141.502 17.4694 141.502 18.8132V26.9959C141.502 27.2434 141.551 27.4424 141.648 27.5927C141.754 27.743 141.971 27.8181 142.298 27.8181C142.404 27.8181 142.523 27.8137 142.656 27.8049C142.789 27.7872 142.93 27.7651 143.08 27.7386V29.5024C142.709 29.6085 142.426 29.6748 142.232 29.7013C142.037 29.7278 141.772 29.7411 141.436 29.7411C140.614 29.7411 140.017 29.4493 139.646 28.8658C139.451 28.5564 139.314 28.1187 139.234 27.5529C138.748 28.1895 138.05 28.742 137.139 29.2106C136.228 29.6792 135.225 29.9135 134.129 29.9135C132.811 29.9135 131.733 29.5157 130.893 28.7199C130.062 27.9154 129.646 26.9119 129.646 25.7095C129.646 24.3921 130.057 23.3709 130.879 22.646C131.702 21.921 132.78 21.4745 134.115 21.3065L137.921 20.8291Z" fill="white"/>
<path d="M115.191 9.8877H117.578V17.1553C118.144 16.4391 118.652 15.9352 119.103 15.6434C119.872 15.1394 120.831 14.8875 121.981 14.8875C124.041 14.8875 125.438 15.608 126.172 17.0492C126.569 17.836 126.768 18.9279 126.768 20.3249V29.4359H124.315V20.484C124.315 19.4407 124.182 18.676 123.917 18.1897C123.484 17.4117 122.67 17.0226 121.477 17.0226C120.487 17.0226 119.589 17.363 118.785 18.0438C117.98 18.7246 117.578 20.011 117.578 21.903V29.4359H115.191V9.8877Z" fill="white"/>
<path d="M107.088 14.8213C108.688 14.8213 109.988 15.2103 110.987 15.9883C111.995 16.7664 112.6 18.1058 112.804 20.0067H110.483C110.341 19.1314 110.019 18.4064 109.515 17.8318C109.011 17.2482 108.202 16.9565 107.088 16.9565C105.567 16.9565 104.479 17.6991 103.825 19.1845C103.401 20.1482 103.189 21.3373 103.189 22.752C103.189 24.1754 103.489 25.3734 104.09 26.3459C104.692 27.3185 105.638 27.8048 106.929 27.8048C107.919 27.8048 108.701 27.5042 109.276 26.903C109.859 26.2929 110.262 25.4618 110.483 24.4097H112.804C112.538 26.2929 111.875 27.6721 110.814 28.5474C109.753 29.4139 108.396 29.8471 106.743 29.8471C104.886 29.8471 103.405 29.1707 102.3 27.818C101.195 26.4565 100.642 24.7589 100.642 22.7254C100.642 20.2322 101.248 18.2915 102.459 16.9034C103.67 15.5153 105.213 14.8213 107.088 14.8213Z" fill="white"/>
<path d="M86.4917 15.2323H88.7595V17.2482C89.4314 16.4171 90.1432 15.8203 90.8947 15.4578C91.6462 15.0953 92.4817 14.9141 93.4012 14.9141C95.417 14.9141 96.7786 15.6169 97.4859 17.0227C97.8749 17.7919 98.0694 18.8927 98.0694 20.3249V29.4359H95.6425V20.4841C95.6425 19.6176 95.5143 18.9192 95.2579 18.3887C94.8335 17.5046 94.0643 17.0625 92.9503 17.0625C92.3844 17.0625 91.9203 17.12 91.5578 17.2349C90.9035 17.4294 90.3288 17.8184 89.8337 18.402C89.4359 18.8706 89.175 19.3568 89.0513 19.8608C88.9363 20.3559 88.8789 21.0676 88.8789 21.996V29.4359H86.4917V15.2323Z" fill="white"/>
<path d="M77.0095 27.8976C78.5921 27.8976 79.6752 27.3008 80.2587 26.1072C80.851 24.9048 81.1472 23.5698 81.1472 22.1021C81.1472 20.7759 80.935 19.6973 80.5107 18.8662C79.8387 17.5577 78.6805 16.9034 77.036 16.9034C75.5772 16.9034 74.5162 17.4604 73.8531 18.5744C73.19 19.6884 72.8585 21.0323 72.8585 22.6061C72.8585 24.1179 73.19 25.3778 73.8531 26.3857C74.5162 27.3936 75.5684 27.8976 77.0095 27.8976ZM77.1023 14.8213C78.9325 14.8213 80.4797 15.4313 81.744 16.6514C83.0083 17.8715 83.6405 19.6663 83.6405 22.0358C83.6405 24.3257 83.0835 26.2177 81.9695 27.7119C80.8555 29.2061 79.127 29.9532 76.784 29.9532C74.8301 29.9532 73.2785 29.2945 72.1291 27.9772C70.9797 26.651 70.405 24.8739 70.405 22.6459C70.405 20.2587 71.0107 18.3578 72.2219 16.9432C73.4332 15.5286 75.06 14.8213 77.1023 14.8213Z" fill="white"/>
<path d="M57.7397 9.9541H60.0341V21.2666L66.1611 15.2324H69.2114L63.7739 20.5504L69.5164 29.4359H66.4661L62.0366 22.2745L60.0341 24.1046V29.4359H57.7397V9.9541Z" fill="white"/>
<path d="M48.3108 27.8976C49.8934 27.8976 50.9764 27.3008 51.5599 26.1072C52.1523 24.9048 52.4485 23.5698 52.4485 22.1021C52.4485 20.7759 52.2363 19.6973 51.8119 18.8662C51.14 17.5577 49.9818 16.9034 48.3373 16.9034C46.8785 16.9034 45.8175 17.4604 45.1544 18.5744C44.4913 19.6884 44.1598 21.0323 44.1598 22.6061C44.1598 24.1179 44.4913 25.3778 45.1544 26.3857C45.8175 27.3936 46.8696 27.8976 48.3108 27.8976ZM48.4036 14.8213C50.2337 14.8213 51.781 15.4313 53.0453 16.6514C54.3096 17.8715 54.9418 19.6663 54.9418 22.0358C54.9418 24.3257 54.3847 26.2177 53.2707 27.7119C52.1567 29.2061 50.4283 29.9532 48.0853 29.9532C46.1314 29.9532 44.5797 29.2945 43.4304 27.9772C42.281 26.651 41.7063 24.8739 41.7063 22.6459C41.7063 20.2587 42.3119 18.3578 43.5232 16.9432C44.7345 15.5286 46.3613 14.8213 48.4036 14.8213Z" fill="white"/>
<path d="M33.1919 27.8976C34.7745 27.8976 35.8575 27.3008 36.4411 26.1072C37.0334 24.9048 37.3296 23.5698 37.3296 22.1021C37.3296 20.7759 37.1174 19.6973 36.693 18.8662C36.0211 17.5577 34.8629 16.9034 33.2184 16.9034C31.7596 16.9034 30.6986 17.4604 30.0355 18.5744C29.3724 19.6884 29.0409 21.0323 29.0409 22.6061C29.0409 24.1179 29.3724 25.3778 30.0355 26.3857C30.6986 27.3936 31.7507 27.8976 33.1919 27.8976ZM33.2847 14.8213C35.1149 14.8213 36.6621 15.4313 37.9264 16.6514C39.1907 17.8715 39.8229 19.6663 39.8229 22.0358C39.8229 24.3257 39.2659 26.2177 38.1518 27.7119C37.0378 29.2061 35.3094 29.9532 32.9664 29.9532C31.0125 29.9532 29.4608 29.2945 28.3115 27.9772C27.1621 26.651 26.5874 24.8739 26.5874 22.6459C26.5874 20.2587 27.193 18.3578 28.4043 16.9432C29.6156 15.5286 31.2424 14.8213 33.2847 14.8213Z" fill="white"/>
<path d="M12.7551 9.9541H15.3943V27.1151H25.2612V29.4359H12.7551V9.9541Z" fill="white"/>
<path fill-rule="evenodd" clip-rule="evenodd" d="M173.438 2.76346H2.7891V37.5059H173.438V2.76346ZM0.706299 0.680664V39.5887H175.521V0.680664H0.706299Z" fill="white"/>
</svg>
