<svg width="223" height="62" viewBox="0 0 223 62" fill="none" xmlns="http://www.w3.org/2000/svg">
<path d="M92.0622 31.5206C94.3941 32.8707 95.5805 34.9162 95.5805 37.6572C95.5805 39.9073 94.7623 41.7892 93.1668 43.262C91.5713 44.7348 89.5666 45.4303 87.2347 45.4303H75.8616V18.6338H86.4574C88.7484 18.6338 90.7121 19.3702 92.2667 20.7611C93.8213 22.193 94.5986 23.9931 94.5986 26.1614C94.6396 28.4114 93.7804 30.1706 92.0622 31.5206ZM86.4574 23.584H81.18V29.4751H86.4574C87.2756 29.4751 87.9711 29.1887 88.503 28.616C89.0348 28.0432 89.3212 27.3478 89.3212 26.4886C89.3212 25.6295 89.0757 24.934 88.503 24.3613C87.9711 23.8703 87.2756 23.584 86.4574 23.584ZM87.2347 40.521C88.1348 40.521 88.8712 40.2346 89.4439 39.621C90.0167 39.0073 90.3439 38.23 90.3439 37.33C90.3439 36.4299 90.0576 35.6935 89.4439 35.0799C88.8712 34.4662 88.1348 34.1798 87.2347 34.1798H81.139V40.521H87.2347Z" fill="white"/>
<path d="M101.267 23.9931C100.449 23.9931 99.7532 23.7068 99.1395 23.0931C98.5259 22.4795 98.2395 21.784 98.2395 20.9658C98.2395 20.1475 98.5259 19.4521 99.1395 18.7975C99.7532 18.1838 100.449 17.8975 101.267 17.8975C102.126 17.8975 102.821 18.1838 103.435 18.7975C104.049 19.4112 104.335 20.1066 104.335 20.9658C104.335 21.784 104.049 22.4795 103.435 23.0931C102.862 23.7068 102.126 23.9931 101.267 23.9931ZM98.8122 45.4303V26.2841H103.762V45.4303H98.8122Z" fill="white"/>
<path d="M119.267 31.0297H114.931V39.0073C114.931 39.6619 115.095 40.1528 115.422 40.4801C115.749 40.7665 116.24 40.971 116.895 41.0119C117.508 41.0528 118.327 41.0528 119.267 40.971V45.4712C115.872 45.8803 113.499 45.553 112.067 44.5302C110.676 43.5075 109.981 41.6665 109.981 39.0482V31.0706H106.667V26.325H109.981V22.4385L114.931 20.9248V26.2841H119.267V31.0297Z" fill="white"/>
<path d="M136.696 26.2847H141.646V53.122H136.696V43.1807C135.223 45.0626 133.178 46.0036 130.477 46.0036C127.9 46.0036 125.691 45.0217 123.85 43.058C122.009 41.0943 121.109 38.7215 121.109 35.8577C121.109 32.994 122.009 30.6212 123.85 28.6575C125.691 26.6938 127.859 25.7119 130.477 25.7119C133.137 25.7119 135.223 26.6529 136.696 28.5347V26.2847ZM127.573 39.7443C128.555 40.7261 129.864 41.258 131.377 41.258C132.891 41.258 134.2 40.767 135.182 39.7443C136.164 38.7624 136.696 37.4533 136.696 35.8577C136.696 34.2622 136.205 32.994 135.182 31.9712C134.2 30.9894 132.932 30.4575 131.377 30.4575C129.864 30.4575 128.555 30.9485 127.573 31.9712C126.591 32.9531 126.059 34.2622 126.059 35.8577C126.059 37.4533 126.55 38.7624 127.573 39.7443Z" fill="white"/>
<path d="M158.787 26.2848H163.738V45.431H158.787V43.2627C157.601 45.0628 155.678 45.9219 153.101 45.9219C151.014 45.9219 149.255 45.2265 147.905 43.7946C146.514 42.3627 145.86 40.4399 145.86 37.9444V26.1621H150.769V37.2898C150.769 38.558 151.096 39.5399 151.833 40.2354C152.528 40.8899 153.428 41.2581 154.614 41.2581C155.883 41.2581 156.905 40.849 157.683 40.0717C158.46 39.2944 158.828 38.108 158.828 36.5125L158.787 26.2848Z" fill="white"/>
<path d="M172.452 37.9033C173.106 40.317 174.906 41.5034 177.852 41.5034C179.734 41.5034 181.166 40.8898 182.147 39.5806L186.116 41.8716C184.234 44.6126 181.452 45.9627 177.77 45.9627C174.579 45.9627 172.083 45.0217 170.161 43.0989C168.238 41.1761 167.297 38.7624 167.297 35.8577C167.297 32.9531 168.238 30.5803 170.12 28.6166C172.002 26.6938 174.415 25.7119 177.402 25.7119C180.225 25.7119 182.557 26.6938 184.357 28.6166C186.198 30.5394 187.098 32.9531 187.098 35.8168C187.098 36.4305 187.016 37.126 186.893 37.8215H172.452V37.9033ZM172.37 34.0577H182.147C181.861 32.7485 181.288 31.8076 180.388 31.153C179.529 30.5394 178.506 30.2121 177.402 30.2121C176.093 30.2121 174.947 30.5803 174.129 31.2348C173.229 31.8894 172.656 32.8304 172.37 34.0577Z" fill="white"/>
<path d="M195.484 29.598C195.934 28.3707 196.711 27.4297 197.775 26.816C198.839 26.2024 200.025 25.916 201.334 25.916V31.439C199.821 31.2753 198.471 31.5617 197.284 32.339C196.098 33.1163 195.484 34.4663 195.484 36.2664V45.4304H190.534V26.2842H195.484V29.598Z" fill="white"/>
<path d="M217.085 26.2842H222.362L215.367 45.4713C214.385 48.2123 213.076 50.176 211.398 51.4442C209.762 52.6715 207.716 53.2443 205.262 53.1216V48.5396C206.571 48.5805 207.635 48.2941 208.412 47.6804C209.189 47.1077 209.803 46.1667 210.253 44.8576L202.398 26.3251H207.798L212.789 39.2119L217.085 26.2842Z" fill="white"/>
<path opacity="0.7" d="M32.8232 61.0989C32.5778 61.1398 32.3323 61.1398 32.0459 61.1398H18.0136C17.0317 61.1398 16.0499 61.058 15.068 60.8944L16.909 54.9214C17.6863 52.344 16.909 49.5621 14.9044 47.803L12.1225 45.3483C10.6497 44.0392 9.83146 42.1982 9.83146 40.2345V28.4931C9.83146 27.7567 9.70873 26.9794 9.46327 26.284L0.953857 1.08301L15.8453 22.0702C16.5408 23.052 16.9908 24.1975 17.1136 25.4248L18.0545 34.2206C18.3 36.6343 19.7728 38.7617 21.941 39.8254L27.1776 42.4846C29.264 43.5482 30.7368 45.5938 31.0232 47.9257L32.8232 61.0989Z" fill="white"/>
<path d="M49.1467 18.1027C46.7739 14.9117 43.2556 12.7434 39.2873 12.1707L30.8597 10.9024C29.6733 10.7388 28.4869 10.3706 27.4232 9.87966C26.3595 9.38873 25.2958 8.73416 24.3958 7.95686C22.5139 6.40226 20.3047 5.29767 17.9319 4.76583L0.953999 1.04297H0.913086H31.8824C40.7191 1.04297 48.124 7.79322 49.024 16.3844C49.1058 16.9163 49.1467 17.489 49.1467 18.1027Z" fill="white"/>
<path opacity="0.8" d="M49.1467 18.1025C49.1467 18.2661 49.1467 18.3889 49.1467 18.5525C49.1467 18.6752 49.1467 18.7571 49.1058 18.8798C49.1058 18.9616 49.1058 19.0025 49.1058 19.0434C49.1058 19.1662 49.0649 19.248 49.0649 19.3298C49.0649 19.3707 49.0649 19.4116 49.0649 19.4525C49.024 19.5753 49.024 19.698 49.024 19.8207C49.024 19.8616 49.024 19.8616 49.024 19.8616C48.9831 19.9844 48.9831 20.0662 48.9831 20.1889C48.9831 20.2298 48.9831 20.2707 48.9422 20.3117C48.9013 20.4344 48.9013 20.5571 48.8603 20.7208C48.8194 20.8435 48.8194 20.9253 48.8194 21.0071C48.7785 21.1708 48.7376 21.3753 48.6967 21.539C48.6558 21.6617 48.6149 21.7844 48.6149 21.9072C48.6149 21.9481 48.6149 21.9481 48.6149 21.9481C48.574 22.0708 48.5331 22.1935 48.4921 22.3572C48.4512 22.4799 48.4103 22.5618 48.4103 22.6845C48.3285 22.9299 48.2876 23.1754 48.2058 23.38C48.1649 23.4618 48.124 23.5436 48.124 23.6254C48.083 23.7482 48.0421 23.8709 48.0012 24.0345C47.8785 24.4027 47.7148 24.7709 47.5512 25.0982C47.4694 25.2209 47.4285 25.3437 47.3876 25.4664C47.3057 25.5891 47.2648 25.7119 47.2239 25.7937C47.183 25.8755 47.1421 25.9164 47.1012 25.9982C47.0603 26.0801 47.0194 26.1619 46.9785 26.2437C46.5694 26.9392 46.1602 27.6347 45.6693 28.2892C45.5875 28.3711 45.5466 28.4529 45.4648 28.5347C45.2602 28.8211 45.0147 29.0665 44.8102 29.3529C44.6465 29.5166 44.5238 29.6802 44.3602 29.8438C44.2784 29.9666 44.1556 30.0484 44.0738 30.1302C43.9102 30.2939 43.7874 30.4166 43.5829 30.5802C43.4192 30.7439 43.2556 30.8666 43.0919 31.0302L0.913086 0.960938H0.953999L17.9319 4.6838C20.3047 5.21564 22.5139 6.32023 24.3958 7.87483C25.3367 8.65213 26.3595 9.3067 27.4232 9.79763C28.4869 10.2886 29.6733 10.6568 30.8597 10.8204L39.2873 12.0886C43.2147 12.7432 46.7739 14.8705 49.1467 18.1025Z" fill="white"/>
<path opacity="0.8" d="M48.8602 47.1902C47.4283 54.8814 40.8417 60.7316 32.8232 61.0998L31.0641 47.8856C30.7368 45.5537 29.3049 43.5082 27.2185 42.4445L21.9819 39.7853C19.8137 38.7217 18.3818 36.5943 18.0954 34.1806L17.1545 25.3848C17.0317 24.1575 16.5817 23.012 15.8862 22.0301L0.953857 1.04297L25.8684 24.7711C26.4003 25.303 26.8503 25.9166 27.1776 26.6121C27.2185 26.6939 27.2594 26.7348 27.2594 26.8167C27.5049 27.4303 27.7094 28.0849 27.7503 28.7804C27.9549 31.235 29.6322 33.3624 31.9641 34.1397L34.8279 35.1215L41.7008 37.4534C43.2145 37.9853 44.4419 39.008 45.1782 40.4399L48.8602 47.1902Z" fill="white"/>
<path opacity="0.5" d="M16.909 54.8403L15.068 60.8133C7.04954 59.4223 0.953857 52.3857 0.953857 43.999V1.00195L9.46327 26.2029C9.70873 26.8984 9.83146 27.6348 9.83146 28.4121V40.1534C9.83146 42.1171 10.6906 43.9581 12.1225 45.2673L14.9044 47.7219C16.909 49.522 17.6863 52.3039 16.909 54.8403Z" fill="white"/>
<path d="M49.1465 44.0399C49.1465 45.1036 49.0238 46.1673 48.8602 47.1901L45.26 40.4398C44.4827 39.0488 43.2554 37.9852 41.7826 37.4533L34.9096 35.1214L32.0459 34.1396C29.714 33.3214 28.0367 31.2349 27.8321 28.7803C27.7503 28.1257 27.5866 27.4302 27.3412 26.8166C27.3003 26.7347 27.2594 26.6938 27.2594 26.612C26.9321 25.9574 26.4821 25.3029 25.9502 24.771L1.03564 1.00195L43.1736 31.0304C46.8146 34.1805 49.1465 38.8034 49.1465 44.0399Z" fill="white"/>
</svg>
