<svg width="25" height="24" viewBox="0 0 25 24" fill="none" xmlns="http://www.w3.org/2000/svg">
<mask id="mask0_2_661" style="mask-type:luminance" maskUnits="userSpaceOnUse" x="2" y="2" width="21" height="20">
<path fill-rule="evenodd" clip-rule="evenodd" d="M3.98682 7.5H21.9868L20.9868 21H4.98682L3.98682 7.5Z" fill="white"/>
<path fill-rule="evenodd" clip-rule="evenodd" d="M3.25406 6.81951C3.44327 6.61577 3.70877 6.5 3.98682 6.5H21.9868C22.2649 6.5 22.5304 6.61577 22.7196 6.81951C22.9088 7.02326 23.0046 7.29658 22.9841 7.57387L21.9841 21.0739C21.9454 21.5961 21.5104 22 20.9868 22H4.98682C4.46319 22 4.02823 21.5961 3.98955 21.0739L2.98955 7.57387C2.96901 7.29658 3.06485 7.02326 3.25406 6.81951ZM5.06363 8.5L5.91548 20H20.0582L20.91 8.5H5.06363Z" fill="white"/>
<path fill-rule="evenodd" clip-rule="evenodd" d="M7.98682 3C7.98682 2.44772 8.43453 2 8.98682 2H16.9868C17.5391 2 17.9868 2.44772 17.9868 3V9.5C17.9868 10.0523 17.5391 10.5 16.9868 10.5C16.4345 10.5 15.9868 10.0523 15.9868 9.5V4H9.98682V9.5C9.98682 10.0523 9.5391 10.5 8.98682 10.5C8.43453 10.5 7.98682 10.0523 7.98682 9.5V3Z" fill="white"/>
<path fill-rule="evenodd" clip-rule="evenodd" d="M7.98682 17C7.98682 16.4477 8.43453 16 8.98682 16H16.9868C17.5391 16 17.9868 16.4477 17.9868 17C17.9868 17.5523 17.5391 18 16.9868 18H8.98682C8.43453 18 7.98682 17.5523 7.98682 17Z" fill="black"/>
</mask>
<g mask="url(#mask0_2_661)">
<path d="M0.986816 0H24.9868V24H0.986816V0Z" fill="#5200FF"/>
</g>
</svg>
