<svg width="25" height="25" viewBox="0 0 25 25" fill="none" xmlns="http://www.w3.org/2000/svg">
<circle cx="12.5" cy="12.4922" r="12" fill="#8A8F98"/>
<path d="M8.6 8.07129C9.9526 8.07129 11.2498 8.58976 12.2062 9.51263C13.1627 10.4355 13.7 11.6872 13.7 12.9923C13.7 14.2975 13.1627 15.5492 12.2062 16.4721C11.2498 17.3949 9.9526 17.9134 8.6 17.9134C7.2474 17.9134 5.95019 17.3949 4.99376 16.4721C4.03732 15.5492 3.5 14.2975 3.5 12.9923C3.5 11.6872 4.03732 10.4355 4.99376 9.51263C5.95019 8.58976 7.2474 8.07129 8.6 8.07129ZM16.25 8.89146C17.525 8.89146 18.375 10.7278 18.375 12.9923C18.375 15.2568 17.525 17.0932 16.25 17.0932C14.975 17.0932 14.125 15.2568 14.125 12.9923C14.125 10.7278 14.975 8.89146 16.25 8.89146ZM19.65 9.30155C19.973 9.30155 20.2552 9.97984 20.398 11.1437L20.438 11.507L20.4541 11.6997L20.4796 12.1049L20.4881 12.3173L20.4983 12.7611L20.5 12.9923L20.4983 13.2236L20.4881 13.6673L20.4796 13.8806L20.4541 14.2849L20.4371 14.4777L20.3989 14.841C20.2552 16.0057 19.9739 16.6831 19.65 16.6831C19.327 16.6831 19.0448 16.0048 18.902 14.841L18.8621 14.4777C18.8562 14.4135 18.8508 14.3492 18.8459 14.2849L18.8204 13.8798C18.8171 13.809 18.8143 13.7382 18.8119 13.6673L18.8017 13.2236V12.7611L18.8119 12.3173L18.8204 12.1041L18.8459 11.6997L18.8629 11.507L18.9011 11.1437C19.0448 9.97902 19.3262 9.30155 19.65 9.30155Z" fill="#020202"/>
</svg>
