<svg width="41" height="40" viewBox="0 0 41 40" fill="none" xmlns="http://www.w3.org/2000/svg">
<g clip-path="url(#clip0_48_5622)">
<mask id="mask0_48_5622" style="mask-type:luminance" maskUnits="userSpaceOnUse" x="0" y="0" width="41" height="40">
<path d="M40.4868 0H0.486816V40H40.4868V0Z" fill="white"/>
</mask>
<g mask="url(#mask0_48_5622)">
<path fill-rule="evenodd" clip-rule="evenodd" d="M36.4243 7.9375C33.3931 4.0625 28.9556 1.59375 24.0493 1.59375C14.5493 1.59375 7.58057 10.4375 7.58057 20C7.58057 26.6562 12.0181 31.6562 16.9243 31.6562C17.3931 31.6562 17.8306 31.625 18.2993 31.5312C14.9868 29.125 12.8931 24.75 12.8931 20C12.8931 12.4375 18.0181 6.53125 24.0493 6.53125C30.6431 6.53125 35.2056 13.0625 35.2056 20C35.1743 25.125 33.3618 30.2188 30.1431 33.9688C27.3306 37.25 23.7056 39.3125 19.7056 39.9688C19.7056 39.9688 20.0493 40 20.4868 40C31.5181 40 40.4868 31.0312 40.4868 20C40.4868 15.4688 38.9868 11.2812 36.4243 7.9375ZM33.3931 20C33.3931 13.3438 28.9556 8.34375 24.0493 8.34375C23.5806 8.34375 23.1431 8.375 22.6743 8.46875C25.9868 10.875 28.0806 15.25 28.0806 20C28.0806 27.5625 22.9556 33.4688 16.9243 33.4688C10.3306 33.4688 5.76807 26.9375 5.76807 20C5.79932 14.875 7.61182 9.78125 10.8306 6.03125C13.6431 2.75 17.2681 0.6875 21.2681 0.03125C21.2681 0.03125 20.9243 0 20.4868 0C9.45557 0 0.486816 8.96875 0.486816 20C0.486816 24.5312 1.98682 28.7188 4.54932 32.0625C7.58057 35.9375 12.0181 38.375 16.9243 38.375C26.4243 38.4062 33.3931 29.5625 33.3931 20Z" fill="#0089DB"/>
</g>
</g>
<defs>
<clipPath id="clip0_48_5622">
<rect width="40" height="40" fill="white" transform="translate(0.486816)"/>
</clipPath>
</defs>
</svg>
