<svg width="41" height="40" viewBox="0 0 41 40" fill="none" xmlns="http://www.w3.org/2000/svg">
<g clip-path="url(#clip0_48_5619)">
<path d="M20.4868 40C31.5325 40 40.4868 31.0457 40.4868 20C40.4868 8.95431 31.5325 0 20.4868 0C9.44112 0 0.486816 8.95431 0.486816 20C0.486816 31.0457 9.44112 40 20.4868 40Z" fill="#FF0420"/>
<path d="M14.6546 25.3119C13.4626 25.3119 12.4866 25.0319 11.7266 24.4719C10.9746 23.9039 10.5986 23.0879 10.5986 22.0399C10.5986 21.8159 10.6226 21.5519 10.6706 21.2319C10.7986 20.5119 10.9826 19.6479 11.2226 18.6319C11.9026 15.8799 13.6626 14.5039 16.4946 14.5039C17.2626 14.5039 17.9586 14.6319 18.5666 14.8959C19.1746 15.1439 19.6546 15.5279 20.0066 16.0399C20.3586 16.5439 20.5346 17.1439 20.5346 17.8399C20.5346 18.0479 20.5106 18.3119 20.4626 18.6319C20.3106 19.5199 20.1346 20.3919 19.9186 21.2319C19.5666 22.5999 18.9666 23.6319 18.1026 24.3119C17.2466 24.9839 16.0946 25.3119 14.6546 25.3119ZM14.8706 23.1519C15.4306 23.1519 15.9026 22.9839 16.2946 22.6559C16.6946 22.3279 16.9826 21.8239 17.1506 21.1359C17.3826 20.1919 17.5586 19.3759 17.6786 18.6719C17.7186 18.4639 17.7426 18.2479 17.7426 18.0239C17.7426 17.1119 17.2706 16.6559 16.3186 16.6559C15.7586 16.6559 15.2786 16.8239 14.8786 17.1519C14.4866 17.4799 14.2066 17.9839 14.0386 18.6719C13.8546 19.3439 13.6786 20.1599 13.4946 21.1359C13.4546 21.3359 13.4306 21.5439 13.4306 21.7679C13.4226 22.6959 13.9106 23.1519 14.8706 23.1519Z" fill="white"/>
<path d="M21.2309 25.168C21.1189 25.168 21.0389 25.136 20.9749 25.064C20.9269 24.984 20.9109 24.896 20.9269 24.792L22.9989 15.032C23.0149 14.92 23.0709 14.832 23.1669 14.76C23.2549 14.688 23.3509 14.656 23.4549 14.656H27.4469C28.5589 14.656 29.4469 14.888 30.1189 15.344C30.7989 15.808 31.1429 16.472 31.1429 17.344C31.1429 17.592 31.1109 17.856 31.0549 18.128C30.8069 19.28 30.3029 20.128 29.5349 20.68C28.7829 21.232 27.7509 21.504 26.4389 21.504H24.4149L23.7269 24.792C23.7029 24.904 23.6549 24.992 23.5589 25.064C23.4709 25.136 23.3749 25.168 23.2709 25.168H21.2309ZM26.5429 19.432C26.9669 19.432 27.3269 19.32 27.6389 19.088C27.9589 18.856 28.1669 18.528 28.2709 18.096C28.3029 17.928 28.3189 17.776 28.3189 17.648C28.3189 17.36 28.2309 17.136 28.0629 16.984C27.8949 16.824 27.5989 16.744 27.1909 16.744H25.3909L24.8229 19.432H26.5429Z" fill="white"/>
</g>
<defs>
<clipPath id="clip0_48_5619">
<rect width="40" height="40" fill="white" transform="translate(0.486816)"/>
</clipPath>
</defs>
</svg>
