<svg width="19" height="19" viewBox="0 0 19 19" fill="none" xmlns="http://www.w3.org/2000/svg">
<path fill-rule="evenodd" clip-rule="evenodd" d="M10.3236 5.62648C10.4144 5.55073 10.5193 5.49362 10.6322 5.45842C10.7451 5.42321 10.8638 5.41059 10.9816 5.42129C11.0993 5.43199 11.2138 5.46579 11.3185 5.52077C11.4232 5.57574 11.5161 5.65081 11.5917 5.74168L14.5914 9.34168C14.7375 9.52573 14.8057 9.7596 14.7817 9.99332C14.7576 10.227 14.6431 10.4421 14.4626 10.5925C14.2821 10.7429 14.0499 10.8168 13.8157 10.7983C13.5815 10.7798 13.3637 10.6705 13.209 10.4937L10.2084 6.89368C10.0557 6.71033 9.9821 6.47386 10.0037 6.23623C10.0253 5.99861 10.1404 5.77928 10.3236 5.62648Z" fill="#D97D24"/>
<path fill-rule="evenodd" clip-rule="evenodd" d="M10.3236 14.2089C10.1404 14.0561 10.0253 13.8368 10.0037 13.5992C9.9821 13.3615 10.0557 13.1251 10.2084 12.9417L13.209 9.34171C13.3637 9.16487 13.5815 9.05555 13.8157 9.03709C14.0499 9.01862 14.2821 9.09249 14.4626 9.24291C14.6431 9.39332 14.7576 9.60835 14.7817 9.84207C14.8057 10.0758 14.7375 10.3097 14.5914 10.4937L11.5917 14.0937C11.5161 14.1846 11.4232 14.2596 11.3185 14.3146C11.2138 14.3696 11.0993 14.4034 10.9816 14.4141C10.8638 14.4248 10.7451 14.4122 10.6322 14.377C10.5193 14.3418 10.4144 14.2847 10.3236 14.2089Z" fill="#D97D24"/>
<path fill-rule="evenodd" clip-rule="evenodd" d="M13 9.9177C13 10.1564 12.9052 10.3853 12.7364 10.5541C12.5676 10.7229 12.3387 10.8177 12.1 10.8177H4.9C4.66131 10.8177 4.43239 10.7229 4.2636 10.5541C4.09482 10.3853 4 10.1564 4 9.9177C4 9.67901 4.09482 9.45009 4.2636 9.2813C4.43239 9.11252 4.66131 9.0177 4.9 9.0177H12.1C12.3387 9.0177 12.5676 9.11252 12.7364 9.2813C12.9052 9.45009 13 9.67901 13 9.9177Z" fill="#D97D24"/>
</svg>
