<svg width="25" height="25" viewBox="0 0 25 25" fill="none" xmlns="http://www.w3.org/2000/svg">
<path d="M12.5 0.492188C5.876 0.492188 0.5 5.86819 0.5 12.4922C0.5 19.1162 5.876 24.4922 12.5 24.4922C19.124 24.4922 24.5 19.1162 24.5 12.4922C24.5 5.86819 19.124 0.492188 12.5 0.492188ZM19.46 14.0882C19.484 14.2562 19.496 14.4362 19.496 14.6162C19.496 17.3042 16.364 19.4882 12.5 19.4882C8.636 19.4882 5.504 17.3042 5.504 14.6162C5.504 14.4362 5.516 14.2562 5.54 14.0882C4.928 13.8122 4.508 13.2002 4.508 12.4922C4.50622 12.1481 4.60616 11.8111 4.79527 11.5236C4.98438 11.2361 5.25422 11.0109 5.57091 10.8763C5.88759 10.7417 6.237 10.7037 6.57523 10.767C6.91347 10.8303 7.22545 10.9921 7.472 11.2322C8.684 10.3562 10.364 9.80419 12.224 9.74419L13.112 5.55619C13.124 5.47219 13.172 5.40019 13.244 5.36419C13.316 5.31619 13.4 5.30419 13.484 5.31619L16.388 5.94019C16.4865 5.74048 16.6366 5.57077 16.8228 5.44864C17.009 5.32651 17.2245 5.25643 17.4469 5.24565C17.6693 5.23488 17.8905 5.28381 18.0877 5.38736C18.2848 5.49091 18.4506 5.64532 18.568 5.83457C18.6853 6.02382 18.7499 6.24101 18.755 6.46363C18.7601 6.68624 18.7055 6.90616 18.5969 7.10058C18.4884 7.295 18.3298 7.45684 18.1376 7.56931C17.9454 7.68177 17.7267 7.74077 17.504 7.74019C16.832 7.74019 16.292 7.21219 16.256 6.55219L13.652 6.00019L12.86 9.74419C14.696 9.80419 16.34 10.3682 17.54 11.2322C17.724 11.0565 17.9441 10.9232 18.185 10.8415C18.4258 10.7598 18.6817 10.7317 18.9345 10.7592C19.1874 10.7867 19.4312 10.8691 19.6489 11.0006C19.8666 11.1322 20.0529 11.3097 20.1948 11.5208C20.3367 11.7319 20.4308 11.9715 20.4705 12.2227C20.5101 12.474 20.4944 12.7308 20.4244 12.9754C20.3544 13.2199 20.2318 13.4462 20.0653 13.6384C19.8987 13.8306 19.6921 13.9841 19.46 14.0882Z" fill="#8A8F98"/>
<path d="M10.996 13.7402C10.996 13.0562 10.432 12.4922 9.748 12.4922C9.064 12.4922 8.5 13.0562 8.5 13.7402C8.5 14.0712 8.63149 14.3886 8.86553 14.6227C9.09958 14.8567 9.41701 14.9882 9.748 14.9882C10.079 14.9882 10.3964 14.8567 10.6305 14.6227C10.8645 14.3886 10.996 14.0712 10.996 13.7402ZM15.004 16.5842C14.464 17.1242 13.312 17.3162 12.496 17.3162C11.68 17.3162 10.528 17.1242 9.988 16.5842C9.95881 16.5529 9.92351 16.528 9.88429 16.511C9.84506 16.494 9.80276 16.4852 9.76 16.4852C9.71724 16.4852 9.67493 16.494 9.63571 16.511C9.59649 16.528 9.56119 16.5529 9.532 16.5842C9.50075 16.6134 9.47584 16.6487 9.4588 16.6879C9.44177 16.7271 9.43298 16.7694 9.43298 16.8122C9.43298 16.8549 9.44177 16.8973 9.4588 16.9365C9.47584 16.9757 9.50075 17.011 9.532 17.0402C10.384 17.8922 12.016 17.9642 12.496 17.9642C12.976 17.9642 14.608 17.8922 15.46 17.0402C15.4912 17.011 15.5162 16.9757 15.5332 16.9365C15.5502 16.8973 15.559 16.8549 15.559 16.8122C15.559 16.7694 15.5502 16.7271 15.5332 16.6879C15.5162 16.6487 15.4912 16.6134 15.46 16.5842C15.34 16.4642 15.136 16.4642 15.004 16.5842ZM15.244 12.4922C14.56 12.4922 13.996 13.0562 13.996 13.7402C13.996 14.4242 14.56 14.9882 15.244 14.9882C15.928 14.9882 16.492 14.4242 16.492 13.7402C16.492 13.0562 15.94 12.4922 15.244 12.4922Z" fill="#8A8F98"/>
</svg>
