<svg width="24" height="24" viewBox="0 0 24 24" fill="none" xmlns="http://www.w3.org/2000/svg">
<path d="M12 0C5.376 0 0 5.376 0 12C0 18.624 5.376 24 12 24C18.624 24 24 18.624 24 12C24 5.376 18.624 0 12 0ZM18.96 13.596C18.984 13.764 18.996 13.944 18.996 14.124C18.996 16.812 15.864 18.996 12 18.996C8.136 18.996 5.004 16.812 5.004 14.124C5.004 13.944 5.016 13.764 5.04 13.596C4.428 13.32 4.008 12.708 4.008 12C4.00622 11.6559 4.10616 11.3189 4.29527 11.0314C4.48438 10.744 4.75422 10.5188 5.07091 10.3841C5.38759 10.2495 5.737 10.2115 6.07523 10.2748C6.41347 10.3381 6.72545 10.4999 6.972 10.74C8.184 9.864 9.864 9.312 11.724 9.252L12.612 5.064C12.624 4.98 12.672 4.908 12.744 4.872C12.816 4.824 12.9 4.812 12.984 4.824L15.888 5.448C15.9865 5.2483 16.1366 5.07858 16.3228 4.95645C16.509 4.83433 16.7245 4.76424 16.9469 4.75347C17.1693 4.74269 17.3905 4.79162 17.5877 4.89517C17.7848 4.99873 17.9506 5.15314 18.068 5.34238C18.1853 5.53163 18.2499 5.74883 18.255 5.97144C18.2601 6.19405 18.2055 6.41398 18.0969 6.6084C17.9884 6.80282 17.8298 6.96465 17.6376 7.07712C17.4454 7.18959 17.2267 7.24859 17.004 7.248C16.332 7.248 15.792 6.72 15.756 6.06L13.152 5.508L12.36 9.252C14.196 9.312 15.84 9.876 17.04 10.74C17.224 10.5643 17.4441 10.431 17.685 10.3493C17.9258 10.2676 18.1817 10.2395 18.4345 10.267C18.6874 10.2945 18.9312 10.3769 19.1489 10.5084C19.3666 10.64 19.5529 10.8175 19.6948 11.0286C19.8367 11.2397 19.9308 11.4793 19.9705 11.7305C20.0101 11.9818 19.9944 12.2386 19.9244 12.4832C19.8544 12.7277 19.7318 12.954 19.5653 13.1462C19.3987 13.3385 19.1921 13.492 18.96 13.596Z" fill="white"/>
<path d="M10.496 13.248C10.496 12.564 9.932 12 9.248 12C8.564 12 8 12.564 8 13.248C8 13.579 8.13149 13.8964 8.36553 14.1305C8.59958 14.3645 8.91701 14.496 9.248 14.496C9.57899 14.496 9.89642 14.3645 10.1305 14.1305C10.3645 13.8964 10.496 13.579 10.496 13.248ZM14.504 16.092C13.964 16.632 12.812 16.824 11.996 16.824C11.18 16.824 10.028 16.632 9.488 16.092C9.45881 16.0608 9.42351 16.0358 9.38429 16.0188C9.34506 16.0018 9.30276 15.993 9.26 15.993C9.21724 15.993 9.17493 16.0018 9.13571 16.0188C9.09649 16.0358 9.06119 16.0608 9.032 16.092C9.00075 16.1212 8.97584 16.1565 8.9588 16.1957C8.94177 16.2349 8.93298 16.2772 8.93298 16.32C8.93298 16.3628 8.94177 16.4051 8.9588 16.4443C8.97584 16.4835 9.00075 16.5188 9.032 16.548C9.884 17.4 11.516 17.472 11.996 17.472C12.476 17.472 14.108 17.4 14.96 16.548C14.9912 16.5188 15.0162 16.4835 15.0332 16.4443C15.0502 16.4051 15.059 16.3628 15.059 16.32C15.059 16.2772 15.0502 16.2349 15.0332 16.1957C15.0162 16.1565 14.9912 16.1212 14.96 16.092C14.84 15.972 14.636 15.972 14.504 16.092ZM14.744 12C14.06 12 13.496 12.564 13.496 13.248C13.496 13.932 14.06 14.496 14.744 14.496C15.428 14.496 15.992 13.932 15.992 13.248C15.992 12.564 15.44 12 14.744 12Z" fill="white"/>
</svg>
