<svg width="25" height="25" viewBox="0 0 25 25" fill="none" xmlns="http://www.w3.org/2000/svg">
<path opacity="0.5" fill-rule="evenodd" clip-rule="evenodd" d="M7.19971 1.90796C7.19971 1.70905 7.12069 1.51828 6.98004 1.37763C6.83938 1.23698 6.64862 1.15796 6.44971 1.15796C6.25079 1.15796 6.06003 1.23698 5.91938 1.37763C5.77872 1.51828 5.69971 1.70905 5.69971 1.90796V21.908C5.69971 22.1069 5.77872 22.2976 5.91938 22.4383C6.06003 22.5789 6.25079 22.658 6.44971 22.658C6.64862 22.658 6.83938 22.5789 6.98004 22.4383C7.12069 22.2976 7.19971 22.1069 7.19971 21.908V3.75796V1.90796Z" fill="white" fill-opacity="0.8"/>
<path d="M14.0487 3.94799L13.8447 3.86599C12.282 3.24095 10.5711 3.0839 8.92071 3.41399L7.19971 3.75799V13.758L8.91971 13.414C10.5705 13.0837 12.2816 13.2408 13.8447 13.866C15.5383 14.5432 17.4022 14.6695 19.1717 14.227L19.3857 14.174C19.6896 14.0982 19.9593 13.9229 20.1521 13.6761C20.3449 13.4293 20.4497 13.1252 20.4497 12.812V5.44499C20.4496 5.26276 20.4081 5.08293 20.3282 4.91916C20.2482 4.75538 20.1321 4.61196 19.9885 4.49977C19.8448 4.38758 19.6776 4.30958 19.4993 4.27167C19.3211 4.23376 19.1365 4.23695 18.9597 4.28099C17.3283 4.68862 15.6099 4.57276 14.0487 3.94799Z" fill="white" fill-opacity="0.8"/>
</svg>
